<?xml version="1.0" encoding="UTF-8"?>
<!DOCTYPE svg PUBLIC "-//W3C//DTD SVG 1.1//EN" "http://www.w3.org/Graphics/SVG/1.1/DTD/svg11.dtd">
<svg xmlns="http://www.w3.org/2000/svg" version="1.1" width="1440px" height="502px" style="shape-rendering:geometricPrecision; text-rendering:geometricPrecision; image-rendering:optimizeQuality; fill-rule:evenodd; clip-rule:evenodd" xmlns:xlink="http://www.w3.org/1999/xlink">
<g><path style="opacity:1" fill="#0163f7" d="M -0.5,-0.5 C 311.5,-0.5 623.5,-0.5 935.5,-0.5C 916.273,111.976 945.107,209.976 1022,293.5C 1111.79,379.974 1218.29,411.807 1341.5,389C 1376.02,381.235 1408.69,368.735 1439.5,351.5C 1439.5,401.5 1439.5,451.5 1439.5,501.5C 959.5,501.5 479.5,501.5 -0.5,501.5C -0.5,334.167 -0.5,166.833 -0.5,-0.5 Z"/></g>
<g><path style="opacity:1" fill="#fefefe" d="M 935.5,-0.5 C 1103.5,-0.5 1271.5,-0.5 1439.5,-0.5C 1439.5,116.833 1439.5,234.167 1439.5,351.5C 1408.69,368.735 1376.02,381.235 1341.5,389C 1218.29,411.807 1111.79,379.974 1022,293.5C 945.107,209.976 916.273,111.976 935.5,-0.5 Z"/></g>
<g><path style="opacity:1" fill="#f3f7fe" d="M 128.5,38.5 C 138.859,37.691 141.192,41.5243 135.5,50C 126.464,50.3225 124.131,46.4891 128.5,38.5 Z"/></g>
<g><path style="opacity:1" fill="#f9fbfe" d="M 184.5,42.5 C 188.167,42.5 191.833,42.5 195.5,42.5C 195.334,50.84 195.5,59.1733 196,67.5C 196.717,66.9558 197.217,66.2891 197.5,65.5C 200.285,61.5421 203.285,57.7088 206.5,54C 210.871,53.1725 215.205,53.3391 219.5,54.5C 214.833,60.1667 210.167,65.8333 205.5,71.5C 210.047,77.4246 214.713,83.2579 219.5,89C 215.167,89.6667 210.833,89.6667 206.5,89C 203.121,84.4095 199.621,79.9095 196,75.5C 195.501,80.1548 195.334,84.8215 195.5,89.5C 191.833,89.5 188.167,89.5 184.5,89.5C 184.5,73.8333 184.5,58.1667 184.5,42.5 Z"/></g>
<g><path style="opacity:1" fill="#357ef8" d="M 184.5,42.5 C 188.298,41.5166 192.298,41.1832 196.5,41.5C 196.174,49.6841 196.508,57.6841 197.5,65.5C 197.217,66.2891 196.717,66.9558 196,67.5C 195.5,59.1733 195.334,50.84 195.5,42.5C 191.833,42.5 188.167,42.5 184.5,42.5 Z"/></g>
<g><path style="opacity:1" fill="#f8fafe" d="M 46.5,44.5 C 67.8529,42.028 78.0195,51.3613 77,72.5C 75.5636,77.4389 73.0636,81.7722 69.5,85.5C 72.3092,89.4767 75.3092,93.31 78.5,97C 74.1667,97.6667 69.8333,97.6667 65.5,97C 61.4965,90.4334 55.4965,87.7668 47.5,89C 34.9231,83.6882 29.7564,74.1882 32,60.5C 34.6264,53.0458 39.4597,47.7125 46.5,44.5 Z"/></g>
<g><path style="opacity:1" fill="#fafbfe" d="M 250.5,44.5 C 255.167,44.5 259.833,44.5 264.5,44.5C 269.705,59.4481 274.705,74.4481 279.5,89.5C 275.774,89.8226 272.107,89.4892 268.5,88.5C 267.379,82.0571 263.545,79.7238 257,81.5C 250.056,79.9987 246.556,82.6654 246.5,89.5C 242.833,89.5 239.167,89.5 235.5,89.5C 240.304,74.4215 245.304,59.4215 250.5,44.5 Z"/></g>
<g><path style="opacity:1" fill="#fbfcfe" d="M 488.5,45.5 C 492.167,45.5 495.833,45.5 499.5,45.5C 499.5,48.1667 499.5,50.8333 499.5,53.5C 501.833,53.5 504.167,53.5 506.5,53.5C 506.5,56.5 506.5,59.5 506.5,62.5C 504.167,62.5 501.833,62.5 499.5,62.5C 499.334,67.8437 499.501,73.1771 500,78.5C 501.754,80.25 503.921,80.9167 506.5,80.5C 506.5,83.5 506.5,86.5 506.5,89.5C 498.843,91.3093 493.01,88.9759 489,82.5C 488.5,75.8417 488.334,69.175 488.5,62.5C 487.167,62.5 485.833,62.5 484.5,62.5C 484.5,59.5 484.5,56.5 484.5,53.5C 485.833,53.5 487.167,53.5 488.5,53.5C 488.5,50.8333 488.5,48.1667 488.5,45.5 Z"/></g>
<g><path style="opacity:1" fill="#f8fafe" d="M 156.5,53.5 C 165.034,52.1718 171.867,54.8384 177,61.5C 178.009,63.0249 178.509,64.6916 178.5,66.5C 174.445,66.8242 170.445,66.4909 166.5,65.5C 159.657,60.45 155.657,62.2834 154.5,71C 154.471,77.9789 157.804,80.9789 164.5,80C 165.357,79.3109 166.023,78.4776 166.5,77.5C 170.445,76.5091 174.445,76.1758 178.5,76.5C 177.506,82.9952 173.839,87.1619 167.5,89C 150.236,91.4037 142.403,83.9037 144,66.5C 144.956,63.6229 146.289,60.9562 148,58.5C 150.682,56.415 153.516,54.7483 156.5,53.5 Z"/></g>
<g><path style="opacity:1" fill="#f7fafe" d="M 294.5,53.5 C 300.892,52.7906 306.892,53.9573 312.5,57C 315.278,59.6034 316.944,62.77 317.5,66.5C 311.906,67.2434 306.906,66.0767 302.5,63C 296.399,62.2833 293.732,65.1167 294.5,71.5C 295.081,81.0857 299.081,82.919 306.5,77C 310.152,76.5014 313.818,76.3347 317.5,76.5C 316.506,82.9952 312.839,87.1619 306.5,89C 289.236,91.4037 281.403,83.9037 283,66.5C 283.806,63.5544 285.139,60.8877 287,58.5C 289.479,56.6859 291.979,55.0192 294.5,53.5 Z"/></g>
<g><path style="opacity:1" fill="#f8fafe" d="M 333.5,53.5 C 342.506,51.5989 349.672,54.2655 355,61.5C 355.402,62.8721 355.902,64.2054 356.5,65.5C 352.5,66.8333 348.5,66.8333 344.5,65.5C 339.847,61.0629 336.014,61.7296 333,67.5C 331.787,72.3816 332.954,76.5483 336.5,80C 339.893,81.1675 342.559,80.3342 344.5,77.5C 358.754,75.0265 360.088,78.5265 348.5,88C 329.247,92.7456 320.413,85.2456 322,65.5C 324.045,59.6244 327.878,55.6244 333.5,53.5 Z"/></g>
<g><path style="opacity:1" fill="#f8fafe" d="M 395.5,66.5 C 395.5,68.8333 395.5,71.1667 395.5,73.5C 387.316,73.1743 379.316,73.5076 371.5,74.5C 371.722,78.278 373.722,80.278 377.5,80.5C 380.006,80.7793 382.006,79.9459 383.5,78C 387.5,77.3333 391.5,77.3333 395.5,78C 390.666,88.0783 382.666,91.7449 371.5,89C 364.007,85.3496 360.341,79.3496 360.5,71C 361,59.8333 366.833,54 378,53.5C 387.507,53.1473 393.341,57.4806 395.5,66.5 Z"/></g>
<g><path style="opacity:1" fill="#f8fafe" d="M 409.5,53.5 C 417.187,51.996 423.687,53.996 429,59.5C 430.128,61.3453 430.628,63.3453 430.5,65.5C 425.779,66.2682 421.779,65.1015 418.5,62C 416.5,61.3333 414.5,61.3333 412.5,62C 411.14,63.9376 411.473,65.6043 413.5,67C 419.936,67.5836 425.436,70.0836 430,74.5C 431.806,85.3019 427.139,90.3019 416,89.5C 407.761,89.9627 402.261,86.2961 399.5,78.5C 403.445,77.5091 407.445,77.1758 411.5,77.5C 411.237,80.7343 412.737,82.0676 416,81.5C 419.441,82.0603 420.774,80.727 420,77.5C 414.837,75.6669 409.67,73.8335 404.5,72C 399.356,63.9606 401.023,57.7939 409.5,53.5 Z"/></g>
<g><path style="opacity:1" fill="#f5f8fe" d="M 445.5,53.5 C 451.072,52.9896 456.405,53.8229 461.5,56C 464.359,58.5525 466.026,61.7192 466.5,65.5C 463.15,65.665 459.817,65.4983 456.5,65C 454.395,61.6464 451.562,60.8131 448,62.5C 447.289,64.3668 447.789,65.8668 449.5,67C 454.021,67.7293 458.354,69.0626 462.5,71C 468.74,78.6406 467.407,84.6406 458.5,89C 453.833,89.6667 449.167,89.6667 444.5,89C 439.056,87.0584 436.056,83.225 435.5,77.5C 440.538,76.6906 444.872,77.8573 448.5,81C 451.099,81.769 453.599,81.6023 456,80.5C 456.749,79.365 456.583,78.365 455.5,77.5C 450.839,76.001 446.172,74.501 441.5,73C 434.08,64.6865 435.413,58.1865 445.5,53.5 Z"/></g>
<g><path style="opacity:1" fill="#f9fbfe" d="M 522.5,53.5 C 542.197,51.69 550.031,60.3567 546,79.5C 544.098,84.4005 540.598,87.5671 535.5,89C 515.925,91.3596 508.092,82.8596 512,63.5C 514.738,59.2595 518.238,55.9262 522.5,53.5 Z"/></g>
<g><path style="opacity:1" fill="#1366f7" d="M 51.5,53.5 C 64.4976,54.3418 68.9976,61.0085 65,73.5C 63.8333,76 62,77.8333 59.5,79C 45.3761,80.5342 40.2095,74.3675 44,60.5C 45.7424,57.2543 48.2424,54.921 51.5,53.5 Z"/></g>
<g><path style="opacity:1" fill="#cfe1fd" d="M 94.5,54.5 C 91.1667,54.5 87.8333,54.5 84.5,54.5C 84.5,63.1667 84.5,71.8333 84.5,80.5C 83.5067,71.6822 83.1734,62.6822 83.5,53.5C 87.3714,53.185 91.0381,53.5184 94.5,54.5 Z"/></g>
<g><path style="opacity:1" fill="#fdfdfe" d="M 94.5,54.5 C 94.3337,61.8409 94.5003,69.1742 95,76.5C 99.1581,81.7782 103.491,81.7782 108,76.5C 108.5,69.1742 108.666,61.8409 108.5,54.5C 111.833,54.5 115.167,54.5 118.5,54.5C 118.5,66.1667 118.5,77.8333 118.5,89.5C 115.167,89.5 111.833,89.5 108.5,89.5C 108.762,88.0222 108.429,86.6888 107.5,85.5C 106.183,87.1591 104.517,88.3257 102.5,89C 93.6516,91.7398 87.6516,88.9065 84.5,80.5C 84.5,71.8333 84.5,63.1667 84.5,54.5C 87.8333,54.5 91.1667,54.5 94.5,54.5 Z"/></g>
<g><path style="opacity:1" fill="#a4c7fc" d="M 108.5,54.5 C 111.962,53.5184 115.629,53.185 119.5,53.5C 119.828,65.6783 119.495,77.6783 118.5,89.5C 118.5,77.8333 118.5,66.1667 118.5,54.5C 115.167,54.5 111.833,54.5 108.5,54.5 Z"/></g>
<g><path style="opacity:1" fill="#ebf1fe" d="M 126.5,53.5 C 130.5,53.5 134.5,53.5 138.5,53.5C 138.5,65.5 138.5,77.5 138.5,89.5C 134.5,89.5 130.5,89.5 126.5,89.5C 126.5,77.5 126.5,65.5 126.5,53.5 Z"/></g>
<g><path style="opacity:1" fill="#286ef7" d="M 256.5,57.5 C 257.117,57.6107 257.617,57.944 258,58.5C 259.816,63.4457 261.316,68.4457 262.5,73.5C 259.167,73.5 255.833,73.5 252.5,73.5C 253.627,68.1177 254.961,62.7843 256.5,57.5 Z"/></g>
<g><path style="opacity:1" fill="#246a9b" d="M 1230.5,89.5 C 1230.63,88.6236 1230.3,87.9569 1229.5,87.5C 1228.51,90.7683 1228.18,94.1016 1228.5,97.5C 1218.5,97.5 1208.5,97.5 1198.5,97.5C 1198.5,88.1667 1198.5,78.8333 1198.5,69.5C 1202.5,69.5 1206.5,69.5 1210.5,69.5C 1210.5,65.8333 1210.5,62.1667 1210.5,58.5C 1213.52,58.3354 1216.52,58.502 1219.5,59C 1223.5,62.3333 1227.5,65.6667 1231.5,69C 1235.82,69.499 1240.15,69.6657 1244.5,69.5C 1244.5,71.8333 1244.5,74.1667 1244.5,76.5C 1239.58,76.1104 1239.24,77.2771 1243.5,80C 1245.13,80.4935 1246.8,80.6602 1248.5,80.5C 1248.5,75.5 1248.5,70.5 1248.5,65.5C 1240.85,67.1238 1234.51,65.1238 1229.5,59.5C 1238.5,58.3185 1247.5,58.3185 1256.5,59.5C 1256.75,68.8734 1256.42,78.2067 1255.5,87.5C 1251.82,87.6653 1248.15,87.4986 1244.5,87C 1240.5,83.6667 1236.5,80.3333 1232.5,77C 1227.18,76.5006 1221.84,76.334 1216.5,76.5C 1216.5,80.1667 1216.5,83.8333 1216.5,87.5C 1214.17,87.5 1211.83,87.5 1209.5,87.5C 1209.5,83.8333 1209.5,80.1667 1209.5,76.5C 1208.17,76.5 1206.83,76.5 1205.5,76.5C 1205.5,81.5 1205.5,86.5 1205.5,91.5C 1210.5,91.5 1215.5,91.5 1220.5,91.5C 1220.5,87.8333 1220.5,84.1667 1220.5,80.5C 1223.52,80.3354 1226.52,80.502 1229.5,81C 1232.87,84.7026 1236.53,88.036 1240.5,91C 1247.5,91.3333 1254.5,91.6667 1261.5,92C 1259.79,94.0435 1257.79,95.7101 1255.5,97C 1250.17,97.6667 1244.83,97.6667 1239.5,97C 1236.84,94.0153 1233.84,91.5153 1230.5,89.5 Z"/></g>
<g><path style="opacity:1" fill="#4d88af" d="M 1286.5,59.5 C 1278.13,59.2953 1269.8,59.6287 1261.5,60.5C 1261.5,69.1667 1261.5,77.8333 1261.5,86.5C 1265.23,86.1774 1268.89,86.5108 1272.5,87.5C 1272.38,88.1067 1272.04,88.44 1271.5,88.5C 1268.04,87.5184 1264.37,87.185 1260.5,87.5C 1260.5,77.8333 1260.5,68.1667 1260.5,58.5C 1269.35,58.1736 1278.02,58.507 1286.5,59.5 Z"/></g>
<g><path style="opacity:1" fill="#1d6798" d="M 1286.5,59.5 C 1288.5,59.5 1290.5,59.5 1292.5,59.5C 1292.5,62.8333 1292.5,66.1667 1292.5,69.5C 1296.17,69.5 1299.83,69.5 1303.5,69.5C 1303.67,73.1817 1303.5,76.8484 1303,80.5C 1299.48,83.2659 1296.14,86.2659 1293,89.5C 1292.5,93.4862 1292.33,97.4862 1292.5,101.5C 1289.83,101.5 1287.17,101.5 1284.5,101.5C 1284.66,100.127 1284.49,98.7932 1284,97.5C 1282.96,98.7101 1281.79,99.7101 1280.5,100.5C 1279.54,102.265 1279.21,104.265 1279.5,106.5C 1285.36,106.822 1291.02,106.489 1296.5,105.5C 1294.77,97.9511 1296.93,91.9511 1303,87.5C 1303.82,96.0104 1303.66,104.344 1302.5,112.5C 1292.79,112.755 1283.13,112.421 1273.5,111.5C 1273.5,108.167 1273.5,104.833 1273.5,101.5C 1276.83,98.0672 1280.33,94.7339 1284,91.5C 1284.5,86.5111 1284.67,81.5111 1284.5,76.5C 1280.5,76.5 1276.5,76.5 1272.5,76.5C 1272.5,74.1667 1272.5,71.8333 1272.5,69.5C 1276.5,69.5 1280.5,69.5 1284.5,69.5C 1284.5,68.1667 1284.5,66.8333 1284.5,65.5C 1279.17,65.5 1273.83,65.5 1268.5,65.5C 1268.5,70.5 1268.5,75.5 1268.5,80.5C 1272.5,80.5 1276.5,80.5 1280.5,80.5C 1280.66,82.8568 1280.5,85.1902 1280,87.5C 1276.35,90.3128 1272.85,93.3128 1269.5,96.5C 1268.83,103.833 1268.17,111.167 1267.5,118.5C 1264.81,116.644 1262.64,114.311 1261,111.5C 1260.33,106.833 1260.33,102.167 1261,97.5C 1264.08,93.9155 1267.58,90.9155 1271.5,88.5C 1272.04,88.44 1272.38,88.1067 1272.5,87.5C 1268.89,86.5108 1265.23,86.1774 1261.5,86.5C 1261.5,77.8333 1261.5,69.1667 1261.5,60.5C 1269.8,59.6287 1278.13,59.2953 1286.5,59.5 Z"/></g>
<g><path style="opacity:1" fill="#2b6ff7" d="M 374.5,62.5 C 377.649,62.2114 380.649,62.7114 383.5,64C 384.38,65.3561 384.714,66.8561 384.5,68.5C 380.167,68.5 375.833,68.5 371.5,68.5C 371.615,66.0532 372.615,64.0532 374.5,62.5 Z"/></g>
<g><path style="opacity:1" fill="#1a68f7" d="M 526.5,62.5 C 534.982,62.7653 538.149,67.0987 536,75.5C 533.447,80.6263 529.614,81.7929 524.5,79C 519.985,72.7824 520.651,67.2824 526.5,62.5 Z"/></g>
<g><path style="opacity:1" fill="#dbe7ee" d="M 1216.5,65.5 C 1219.6,64.9066 1221.93,65.9066 1223.5,68.5C 1221.26,69.4742 1218.92,69.8076 1216.5,69.5C 1216.5,68.1667 1216.5,66.8333 1216.5,65.5 Z"/></g>
<g><path style="opacity:1" fill="#b5d1fc" d="M 395.5,66.5 C 396.473,68.9479 396.806,71.6146 396.5,74.5C 388.167,74.5 379.833,74.5 371.5,74.5C 379.316,73.5076 387.316,73.1743 395.5,73.5C 395.5,71.1667 395.5,68.8333 395.5,66.5 Z"/></g>
<g><path style="opacity:1" fill="#f5f8fa" d="M 1292.5,76.5 C 1293.83,76.5 1295.17,76.5 1296.5,76.5C 1296.91,79.5993 1295.74,81.9326 1293,83.5C 1292.5,81.1902 1292.34,78.8568 1292.5,76.5 Z"/></g>
<g><path style="opacity:1" fill="#bbd2e1" d="M 1230.5,89.5 C 1230.5,92.5 1230.5,95.5 1230.5,98.5C 1219.65,98.8278 1208.99,98.4944 1198.5,97.5C 1208.5,97.5 1218.5,97.5 1228.5,97.5C 1228.18,94.1016 1228.51,90.7683 1229.5,87.5C 1230.3,87.9569 1230.63,88.6236 1230.5,89.5 Z"/></g>
<g><path style="opacity:1" fill="#226a9a" d="M 1230.5,127.5 C 1233.05,128.504 1236.38,128.837 1240.5,128.5C 1240.5,137.5 1240.5,146.5 1240.5,155.5C 1230.68,156.494 1220.68,156.827 1210.5,156.5C 1210.5,152.833 1210.5,149.167 1210.5,145.5C 1206.5,145.5 1202.5,145.5 1198.5,145.5C 1198.33,141.818 1198.5,138.152 1199,134.5C 1202.62,131.611 1206.12,128.611 1209.5,125.5C 1210.48,121.702 1210.82,117.702 1210.5,113.5C 1212.83,113.5 1215.17,113.5 1217.5,113.5C 1217.11,118.422 1218.28,118.756 1221,114.5C 1221.49,112.866 1221.66,111.199 1221.5,109.5C 1216.17,109.5 1210.83,109.5 1205.5,109.5C 1207.24,117.094 1205.07,123.094 1199,127.5C 1198.5,119.173 1198.33,110.84 1198.5,102.5C 1208.83,102.5 1219.17,102.5 1229.5,102.5C 1229.67,106.182 1229.5,109.848 1229,113.5C 1225.63,117.203 1221.97,120.536 1218,123.5C 1217.5,128.489 1217.33,133.489 1217.5,138.5C 1220.96,139.482 1224.63,139.815 1228.5,139.5C 1228.5,141.5 1228.5,143.5 1228.5,145.5C 1224.83,145.5 1221.17,145.5 1217.5,145.5C 1217.5,147.167 1217.5,148.833 1217.5,150.5C 1222.83,150.5 1228.17,150.5 1233.5,150.5C 1233.5,145.167 1233.5,139.833 1233.5,134.5C 1229.5,134.5 1225.5,134.5 1221.5,134.5C 1221.34,132.143 1221.5,129.81 1222,127.5C 1233.08,120.591 1236.92,110.591 1233.5,97.5C 1236.99,98.1434 1239.49,100.143 1241,103.5C 1241.83,108.533 1241.66,113.533 1240.5,118.5C 1236.72,121.049 1233.38,124.049 1230.5,127.5 Z"/></g>
<g><path style="opacity:1" fill="#83acc7" d="M 1280.5,100.5 C 1280.5,102.167 1280.5,103.833 1280.5,105.5C 1285.83,105.5 1291.17,105.5 1296.5,105.5C 1291.02,106.489 1285.36,106.822 1279.5,106.5C 1279.21,104.265 1279.54,102.265 1280.5,100.5 Z"/></g>
<g><path style="opacity:1" fill="#76a4c1" d="M 1244.5,101.5 C 1248.83,101.5 1253.17,101.5 1257.5,101.5C 1257.5,105.5 1257.5,109.5 1257.5,113.5C 1253.17,113.5 1248.83,113.5 1244.5,113.5C 1244.5,109.5 1244.5,105.5 1244.5,101.5 Z"/></g>
<g><path style="opacity:1" fill="#136395" d="M 1245.5,102.5 C 1249.17,102.5 1252.83,102.5 1256.5,102.5C 1256.5,105.833 1256.5,109.167 1256.5,112.5C 1252.83,112.5 1249.17,112.5 1245.5,112.5C 1245.5,109.167 1245.5,105.833 1245.5,102.5 Z"/></g>
<g><path style="opacity:1" fill="#78a5c2" d="M 1273.5,101.5 C 1273.5,104.833 1273.5,108.167 1273.5,111.5C 1283.13,112.421 1292.79,112.755 1302.5,112.5C 1292.64,113.77 1282.64,113.77 1272.5,112.5C 1272.19,108.629 1272.52,104.962 1273.5,101.5 Z"/></g>
<g><path style="opacity:1" fill="#89b1ca" d="M 1217.5,113.5 C 1215.17,113.5 1212.83,113.5 1210.5,113.5C 1210.82,117.702 1210.48,121.702 1209.5,125.5C 1209.5,121.167 1209.5,116.833 1209.5,112.5C 1212.39,112.194 1215.05,112.527 1217.5,113.5 Z"/></g>
<g><path style="opacity:1" fill="#22699a" d="M 1261.5,124.5 C 1254.83,123.833 1248.17,123.167 1241.5,122.5C 1242.67,120.496 1244.34,118.996 1246.5,118C 1251.83,117.333 1257.17,117.333 1262.5,118C 1265.67,121.167 1268.83,124.333 1272,127.5C 1272.5,124.183 1272.67,120.85 1272.5,117.5C 1282.83,117.5 1293.17,117.5 1303.5,117.5C 1303.67,126.506 1303.5,135.506 1303,144.5C 1299.61,145.456 1296.11,145.789 1292.5,145.5C 1292.5,149.167 1292.5,152.833 1292.5,156.5C 1288.82,156.665 1285.15,156.499 1281.5,156C 1277.64,152.9 1273.98,149.567 1270.5,146C 1266.18,145.501 1261.85,145.334 1257.5,145.5C 1257.5,143.167 1257.5,140.833 1257.5,138.5C 1259.35,138.728 1260.19,138.061 1260,136.5C 1258.21,134.771 1256.04,134.104 1253.5,134.5C 1253.5,139.5 1253.5,144.5 1253.5,149.5C 1261.22,148.136 1267.55,150.302 1272.5,156C 1263.84,156.5 1255.17,156.666 1246.5,156.5C 1245.65,147.195 1245.31,137.861 1245.5,128.5C 1249.85,128.334 1254.18,128.501 1258.5,129C 1261.83,132 1265.17,135 1268.5,138C 1274.16,138.499 1279.82,138.666 1285.5,138.5C 1285.5,134.833 1285.5,131.167 1285.5,127.5C 1287.83,127.5 1290.17,127.5 1292.5,127.5C 1292.5,131.167 1292.5,134.833 1292.5,138.5C 1293.83,138.5 1295.17,138.5 1296.5,138.5C 1296.5,133.5 1296.5,128.5 1296.5,123.5C 1291.5,123.5 1286.5,123.5 1281.5,123.5C 1281.5,127.167 1281.5,130.833 1281.5,134.5C 1278.48,134.665 1275.48,134.498 1272.5,134C 1268.67,130.998 1265,127.831 1261.5,124.5 Z"/></g>
<g><path style="opacity:1" fill="#78a6c3" d="M 1241.5,122.5 C 1248.17,123.167 1254.83,123.833 1261.5,124.5C 1254.47,124.83 1247.47,124.497 1240.5,123.5C 1240.62,122.893 1240.96,122.56 1241.5,122.5 Z"/></g>
<g><path style="opacity:1" fill="#73a1bf" d="M 1230.5,127.5 C 1234.17,127.5 1237.83,127.5 1241.5,127.5C 1241.83,137.015 1241.49,146.348 1240.5,155.5C 1240.5,146.5 1240.5,137.5 1240.5,128.5C 1236.38,128.837 1233.05,128.504 1230.5,127.5 Z"/></g>
<g><path style="opacity:1" fill="#f2f6fe" d="M 146.5,134.5 C 153.327,133.174 156.494,135.84 156,142.5C 153.037,146.892 149.37,147.559 145,144.5C 142.729,140.697 143.229,137.363 146.5,134.5 Z"/></g>
<g><path style="opacity:1" fill="#f3f6fe" d="M 191.5,134.5 C 198.327,133.174 201.494,135.84 201,142.5C 197.294,147.268 193.294,147.601 189,143.5C 187.93,139.858 188.764,136.858 191.5,134.5 Z"/></g>
<g><path style="opacity:1" fill="#e5eef3" d="M 1207.5,132.5 C 1209.31,133.918 1209.97,135.918 1209.5,138.5C 1208.17,138.5 1206.83,138.5 1205.5,138.5C 1205.25,136.142 1205.92,134.142 1207.5,132.5 Z"/></g>
<g><path style="opacity:1" fill="#73a2c1" d="M 1217.5,138.5 C 1221.5,138.5 1225.5,138.5 1229.5,138.5C 1229.5,140.833 1229.5,143.167 1229.5,145.5C 1229.17,145.5 1228.83,145.5 1228.5,145.5C 1228.5,143.5 1228.5,141.5 1228.5,139.5C 1224.63,139.815 1220.96,139.482 1217.5,138.5 Z"/></g>
<g><path style="opacity:1" fill="#fbfcfe" d="M 58.5,158.5 C 58.5,161.167 58.5,163.833 58.5,166.5C 53.6367,166.181 48.97,166.514 44.5,167.5C 44.5,170.5 44.5,173.5 44.5,176.5C 49.6405,177.488 54.9738,177.821 60.5,177.5C 60.5,180.167 60.5,182.833 60.5,185.5C 51.5,185.5 42.5,185.5 33.5,185.5C 33.5,170.5 33.5,155.5 33.5,140.5C 42.8333,140.5 52.1667,140.5 61.5,140.5C 61.5,143.5 61.5,146.5 61.5,149.5C 55.8333,149.5 50.1667,149.5 44.5,149.5C 44.5,152.5 44.5,155.5 44.5,158.5C 49.1667,158.5 53.8333,158.5 58.5,158.5 Z"/></g>
<g><path style="opacity:1" fill="#fbfcfe" d="M 165.5,141.5 C 168.833,141.5 172.167,141.5 175.5,141.5C 175.5,144.5 175.5,147.5 175.5,150.5C 177.833,150.5 180.167,150.5 182.5,150.5C 182.5,153.167 182.5,155.833 182.5,158.5C 180.167,158.5 177.833,158.5 175.5,158.5C 175.179,164.026 175.512,169.36 176.5,174.5C 176.611,175.117 176.944,175.617 177.5,176C 179.473,176.495 181.473,176.662 183.5,176.5C 183.5,179.5 183.5,182.5 183.5,185.5C 178.223,186.069 173.223,185.235 168.5,183C 166.623,180.874 165.623,178.374 165.5,175.5C 165.5,169.833 165.5,164.167 165.5,158.5C 163.833,158.5 162.167,158.5 160.5,158.5C 160.5,155.5 160.5,152.5 160.5,149.5C 162.167,149.5 163.833,149.5 165.5,149.5C 165.5,146.833 165.5,144.167 165.5,141.5 Z"/></g>
<g><path style="opacity:1" fill="#fbfcfe" d="M 333.5,158.5 C 333.5,161.167 333.5,163.833 333.5,166.5C 328.637,166.181 323.97,166.514 319.5,167.5C 319.5,170.5 319.5,173.5 319.5,176.5C 324.833,176.5 330.167,176.5 335.5,176.5C 335.5,179.5 335.5,182.5 335.5,185.5C 326.5,185.5 317.5,185.5 308.5,185.5C 308.5,170.5 308.5,155.5 308.5,140.5C 317.5,140.5 326.5,140.5 335.5,140.5C 335.5,143.5 335.5,146.5 335.5,149.5C 330.167,149.5 324.833,149.5 319.5,149.5C 319.5,152.5 319.5,155.5 319.5,158.5C 324.167,158.5 328.833,158.5 333.5,158.5 Z"/></g>
<g><path style="opacity:1" fill="#fbfcfe" d="M 485.5,158.5 C 482.833,158.5 480.167,158.5 477.5,158.5C 477.179,164.026 477.512,169.36 478.5,174.5C 478.611,175.117 478.944,175.617 479.5,176C 481.473,176.495 483.473,176.662 485.5,176.5C 485.5,179.5 485.5,182.5 485.5,185.5C 481.818,185.665 478.152,185.499 474.5,185C 470.9,183.734 468.733,181.234 468,177.5C 467.501,171.509 467.334,165.509 467.5,159.5C 466.432,158.566 465.099,158.232 463.5,158.5C 463.5,155.5 463.5,152.5 463.5,149.5C 464.833,149.5 466.167,149.5 467.5,149.5C 467.5,146.833 467.5,144.167 467.5,141.5C 471.167,141.5 474.833,141.5 478.5,141.5C 478.5,144.167 478.5,146.833 478.5,149.5C 480.833,149.5 483.167,149.5 485.5,149.5C 485.5,152.5 485.5,155.5 485.5,158.5 Z"/></g>
<g><path style="opacity:1" fill="#fbfcfe" d="M 597.5,175.5 C 599.717,176.369 602.05,176.702 604.5,176.5C 604.5,179.5 604.5,182.5 604.5,185.5C 600.818,185.665 597.152,185.499 593.5,185C 589.123,183.795 586.79,180.961 586.5,176.5C 586.5,170.5 586.5,164.5 586.5,158.5C 584.833,158.5 583.167,158.5 581.5,158.5C 581.5,155.5 581.5,152.5 581.5,149.5C 582.833,149.5 584.167,149.5 585.5,149.5C 586.473,147.052 586.806,144.385 586.5,141.5C 589.833,141.5 593.167,141.5 596.5,141.5C 596.5,144.5 596.5,147.5 596.5,150.5C 598.833,150.5 601.167,150.5 603.5,150.5C 603.5,153.167 603.5,155.833 603.5,158.5C 601.167,158.5 598.833,158.5 596.5,158.5C 596.178,164.358 596.511,170.025 597.5,175.5 Z"/></g>
<g><path style="opacity:1" fill="#bad0e0" d="M 1221.5,134.5 C 1225.5,134.5 1229.5,134.5 1233.5,134.5C 1233.5,139.833 1233.5,145.167 1233.5,150.5C 1228.17,150.5 1222.83,150.5 1217.5,150.5C 1217.5,148.833 1217.5,147.167 1217.5,145.5C 1221.17,145.5 1224.83,145.5 1228.5,145.5C 1228.83,145.5 1229.17,145.5 1229.5,145.5C 1225.98,146.166 1222.31,146.833 1218.5,147.5C 1223.12,148.493 1227.79,148.827 1232.5,148.5C 1232.5,144.167 1232.5,139.833 1232.5,135.5C 1228.63,135.815 1224.96,135.482 1221.5,134.5 Z"/></g>
<g><path style="opacity:1" fill="#c7d9e5" d="M 1277.5,145.5 C 1280.17,145.5 1282.83,145.5 1285.5,145.5C 1285.5,147.167 1285.5,148.833 1285.5,150.5C 1281.78,150.436 1279.11,148.769 1277.5,145.5 Z"/></g>
<g><path style="opacity:1" fill="#f8fafe" d="M 115.5,149.5 C 124.506,147.599 131.672,150.266 137,157.5C 137.402,158.872 137.902,160.205 138.5,161.5C 134.5,162.833 130.5,162.833 126.5,161.5C 121.847,157.063 118.014,157.73 115,163.5C 113.787,168.382 114.954,172.548 118.5,176C 121.893,177.168 124.559,176.334 126.5,173.5C 140.754,171.026 142.088,174.526 130.5,184C 111.247,188.746 102.413,181.246 104,161.5C 106.045,155.624 109.878,151.624 115.5,149.5 Z"/></g>
<g><path style="opacity:1" fill="#f8fafe" d="M 208.5,149.5 C 212.167,149.5 215.833,149.5 219.5,149.5C 219.343,150.873 219.51,152.207 220,153.5C 227.241,148.028 234.241,148.361 241,154.5C 241.862,156.087 242.529,157.754 243,159.5C 243.5,168.16 243.666,176.827 243.5,185.5C 239.833,185.5 236.167,185.5 232.5,185.5C 232.666,177.493 232.5,169.493 232,161.5C 227.925,157.59 223.925,157.59 220,161.5C 219.5,169.493 219.334,177.493 219.5,185.5C 215.833,185.5 212.167,185.5 208.5,185.5C 208.5,173.5 208.5,161.5 208.5,149.5 Z"/></g>
<g><path style="opacity:1" fill="#fafbfe" d="M 259.5,149.5 C 265.324,148.588 270.49,149.922 275,153.5C 275.49,152.207 275.657,150.873 275.5,149.5C 279.167,149.5 282.833,149.5 286.5,149.5C 286.667,163.171 286.5,176.837 286,190.5C 284.947,196.553 281.447,200.387 275.5,202C 270.5,202.667 265.5,202.667 260.5,202C 254.732,199.737 251.399,195.57 250.5,189.5C 254.182,189.335 257.848,189.501 261.5,190C 265.856,194.441 270.356,194.608 275,190.5C 275.667,187.5 275.667,184.5 275,181.5C 273.786,183.049 272.286,184.215 270.5,185C 261.348,187.895 254.848,185.062 251,176.5C 246.722,164.96 249.555,155.96 259.5,149.5 Z"/></g>
<g><path style="opacity:1" fill="#f9fafe" d="M 416.5,169.5 C 408.167,169.5 399.833,169.5 391.5,169.5C 391.263,170.791 391.596,171.791 392.5,172.5C 393.246,175.555 395.246,177.222 398.5,177.5C 400.663,177.255 402.33,176.255 403.5,174.5C 407.445,173.509 411.445,173.176 415.5,173.5C 414.586,178.258 411.919,181.758 407.5,184C 388.953,188.809 380.119,181.643 381,162.5C 386.745,149.394 396.245,145.894 409.5,152C 415.299,156.432 417.632,162.266 416.5,169.5 Z"/></g>
<g><path style="opacity:1" fill="#f8fafe" d="M 422.5,149.5 C 426.167,149.5 429.833,149.5 433.5,149.5C 433.343,150.873 433.51,152.207 434,153.5C 444.799,146.428 452.799,148.761 458,160.5C 458.5,168.827 458.666,177.16 458.5,185.5C 454.833,185.5 451.167,185.5 447.5,185.5C 447.666,177.826 447.5,170.159 447,162.5C 442.489,157.243 438.156,157.243 434,162.5C 433.5,170.159 433.334,177.826 433.5,185.5C 429.833,185.5 426.167,185.5 422.5,185.5C 422.5,173.5 422.5,161.5 422.5,149.5 Z"/></g>
<g><path style="opacity:1" fill="#f5f8fe" d="M 498.5,149.5 C 504.402,148.962 510.068,149.795 515.5,152C 518.359,154.552 520.026,157.719 520.5,161.5C 517.15,161.665 513.817,161.498 510.5,161C 508.395,157.646 505.562,156.813 502,158.5C 501.289,160.367 501.789,161.867 503.5,163C 508.021,163.729 512.354,165.063 516.5,167C 522.74,174.641 521.407,180.641 512.5,185C 507.833,185.667 503.167,185.667 498.5,185C 493.056,183.058 490.056,179.225 489.5,173.5C 494.538,172.691 498.872,173.857 502.5,177C 505.099,177.769 507.599,177.602 510,176.5C 510.749,175.365 510.583,174.365 509.5,173.5C 504.839,172.001 500.172,170.501 495.5,169C 488.316,161.27 489.316,154.77 498.5,149.5 Z"/></g>
<g><path style="opacity:1" fill="#f9fbfe" d="M 549.5,149.5 C 555.701,148.285 560.868,149.952 565,154.5C 565.494,152.866 565.66,151.199 565.5,149.5C 569.167,149.5 572.833,149.5 576.5,149.5C 576.5,161.5 576.5,173.5 576.5,185.5C 572.833,185.5 569.167,185.5 565.5,185.5C 565.657,184.127 565.49,182.793 565,181.5C 560.139,185.284 554.639,186.451 548.5,185C 540.125,179.379 536.958,171.546 539,161.5C 540.963,156.044 544.463,152.044 549.5,149.5 Z"/></g>
<g><path style="opacity:1" fill="#f7f9fe" d="M 64.5,150.5 C 68.6829,149.189 73.0162,149.189 77.5,150.5C 79.1468,153.473 81.1468,156.14 83.5,158.5C 85.6105,155.792 87.6105,152.959 89.5,150C 93.2113,149.175 96.878,149.341 100.5,150.5C 97.0825,156.337 93.4158,162.004 89.5,167.5C 92.9141,173.745 96.9141,179.579 101.5,185C 97.1287,185.828 92.7953,185.661 88.5,184.5C 86.8532,181.527 84.8532,178.86 82.5,176.5C 80.3771,179.246 78.3771,182.079 76.5,185C 72.7887,185.825 69.122,185.659 65.5,184.5C 68.9175,178.663 72.5842,172.996 76.5,167.5C 72.7238,161.591 68.7238,155.925 64.5,150.5 Z"/></g>
<g><path style="opacity:1" fill="#fbfcfe" d="M 144.5,149.5 C 148.167,149.5 151.833,149.5 155.5,149.5C 155.5,161.5 155.5,173.5 155.5,185.5C 151.833,185.5 148.167,185.5 144.5,185.5C 144.5,173.5 144.5,161.5 144.5,149.5 Z"/></g>
<g><path style="opacity:1" fill="#8fb9fb" d="M 165.5,141.5 C 168.962,140.518 172.629,140.185 176.5,140.5C 176.5,143.5 176.5,146.5 176.5,149.5C 178.833,149.5 181.167,149.5 183.5,149.5C 183.5,152.833 183.5,156.167 183.5,159.5C 181.167,159.5 178.833,159.5 176.5,159.5C 176.5,164.5 176.5,169.5 176.5,174.5C 175.512,169.36 175.179,164.026 175.5,158.5C 177.833,158.5 180.167,158.5 182.5,158.5C 182.5,155.833 182.5,153.167 182.5,150.5C 180.167,150.5 177.833,150.5 175.5,150.5C 175.5,147.5 175.5,144.5 175.5,141.5C 172.167,141.5 168.833,141.5 165.5,141.5 Z"/></g>
<g><path style="opacity:1" fill="#fefffe" d="M 189.5,150.5 C 192.833,150.5 196.167,150.5 199.5,150.5C 199.5,162.167 199.5,173.833 199.5,185.5C 196.167,185.5 192.833,185.5 189.5,185.5C 189.5,173.833 189.5,162.167 189.5,150.5 Z"/></g>
<g><path style="opacity:1" fill="#bed7fc" d="M 189.5,150.5 C 192.962,149.518 196.629,149.185 200.5,149.5C 200.828,161.678 200.495,173.678 199.5,185.5C 199.5,173.833 199.5,162.167 199.5,150.5C 196.167,150.5 192.833,150.5 189.5,150.5 Z"/></g>
<g><path style="opacity:1" fill="#f7f9fe" d="M 339.5,149.5 C 343.555,149.176 347.555,149.509 351.5,150.5C 353.713,158.592 356.213,166.592 359,174.5C 361.401,166.464 363.901,158.464 366.5,150.5C 370.5,149.167 374.5,149.167 378.5,150.5C 374.067,161.967 369.733,173.467 365.5,185C 360.913,185.799 356.413,185.632 352,184.5C 347.925,172.772 343.758,161.105 339.5,149.5 Z"/></g>
<g><path style="opacity:1" fill="#74a9fa" d="M 463.5,149.5 C 463.5,152.5 463.5,155.5 463.5,158.5C 465.099,158.232 466.432,158.566 467.5,159.5C 465.833,159.5 464.167,159.5 462.5,159.5C 462.187,155.958 462.521,152.625 463.5,149.5 Z"/></g>
<g><path style="opacity:1" fill="#90b9fb" d="M 597.5,175.5 C 596.511,170.025 596.178,164.358 596.5,158.5C 598.833,158.5 601.167,158.5 603.5,158.5C 603.5,155.833 603.5,153.167 603.5,150.5C 601.167,150.5 598.833,150.5 596.5,150.5C 596.5,147.5 596.5,144.5 596.5,141.5C 593.167,141.5 589.833,141.5 586.5,141.5C 586.806,144.385 586.473,147.052 585.5,149.5C 585.5,146.5 585.5,143.5 585.5,140.5C 589.5,140.5 593.5,140.5 597.5,140.5C 597.5,143.5 597.5,146.5 597.5,149.5C 599.833,149.5 602.167,149.5 604.5,149.5C 604.5,152.833 604.5,156.167 604.5,159.5C 602.167,159.5 599.833,159.5 597.5,159.5C 597.5,164.833 597.5,170.167 597.5,175.5 Z"/></g>
<g><path style="opacity:1" fill="#828282" d="M 1093.5,149.5 C 1095,149.415 1096,150.081 1096.5,151.5C 1095.17,152.833 1093.83,152.833 1092.5,151.5C 1092.86,150.817 1093.2,150.15 1093.5,149.5 Z"/></g>
<g><path style="opacity:1" fill="#6c6c6c" d="M 1154.5,150.5 C 1155.68,150.281 1156.68,150.614 1157.5,151.5C 1155.95,152.798 1154.95,152.465 1154.5,150.5 Z"/></g>
<g><path style="opacity:1" fill="#6c6c6c" d="M 1164.5,152.5 C 1166.26,153.552 1166.92,155.219 1166.5,157.5C 1170.5,157.833 1170.5,158.167 1166.5,158.5C 1166.5,162.5 1166.5,166.5 1166.5,170.5C 1167.55,170.351 1168.55,170.517 1169.5,171C 1167.56,171.743 1165.73,171.576 1164,170.5C 1164.06,166.018 1163.23,161.852 1161.5,158C 1163.15,156.538 1164.15,154.705 1164.5,152.5 Z"/></g>
<g><path style="opacity:1" fill="#5c5c5c" d="M 1060.5,169.5 C 1062.83,170.791 1065,170.458 1067,168.5C 1067.17,164.789 1067.67,161.122 1068.5,157.5C 1069.83,162.167 1069.83,166.833 1068.5,171.5C 1066.44,170.85 1064.28,170.85 1062,171.5C 1059.74,171.453 1058.24,170.453 1057.5,168.5C 1057.18,164.774 1057.51,161.107 1058.5,157.5C 1059.17,161.647 1059.83,165.647 1060.5,169.5 Z"/></g>
<g><path style="opacity:1" fill="#1366f7" d="M 404.5,161.5 C 402.952,162.794 400.952,163.461 398.5,163.5C 396.304,163.495 394.304,163.162 392.5,162.5C 393.114,159.234 395.114,157.901 398.5,158.5C 401.308,158.078 403.308,159.078 404.5,161.5 Z"/></g>
<g><path style="opacity:1" fill="#b0b0b0" d="M 1060.5,169.5 C 1059.83,165.647 1059.17,161.647 1058.5,157.5C 1057.51,161.107 1057.18,164.774 1057.5,168.5C 1056.52,164.702 1056.18,160.702 1056.5,156.5C 1057.83,156.5 1059.17,156.5 1060.5,156.5C 1060.5,160.833 1060.5,165.167 1060.5,169.5 Z"/></g>
<g><path style="opacity:1" fill="#b8b8b8" d="M 1095.5,171.5 C 1094.83,152.833 1094.17,152.833 1093.5,171.5C 1092.51,166.695 1092.18,161.695 1092.5,156.5C 1093.83,156.5 1095.17,156.5 1096.5,156.5C 1096.82,161.695 1096.49,166.695 1095.5,171.5 Z"/></g>
<g><path style="opacity:1" fill="#575757" d="M 1109.5,163.5 C 1109.57,161.304 1110.23,159.304 1111.5,157.5C 1111.83,157.833 1112.17,158.167 1112.5,158.5C 1112.04,160.598 1111.04,162.264 1109.5,163.5 Z"/></g>
<g><path style="opacity:1" fill="#838383" d="M 1131.5,156.5 C 1133.88,157.42 1136.21,157.42 1138.5,156.5C 1139.39,157.325 1139.72,158.325 1139.5,159.5C 1137.55,159.227 1136.05,159.893 1135,161.5C 1134.5,164.817 1134.33,168.15 1134.5,171.5C 1133.5,171.5 1132.5,171.5 1131.5,171.5C 1131.5,166.5 1131.5,161.5 1131.5,156.5 Z"/></g>
<g><path style="opacity:1" fill="#629ffa" d="M 160.5,158.5 C 162.167,158.5 163.833,158.5 165.5,158.5C 165.5,164.167 165.5,169.833 165.5,175.5C 164.512,170.36 164.179,165.026 164.5,159.5C 162.901,159.768 161.568,159.434 160.5,158.5 Z"/></g>
<g><path style="opacity:1" fill="#1968f7" d="M 265.5,158.5 C 274.688,158.878 277.854,163.544 275,172.5C 269.75,178.173 265.084,177.84 261,171.5C 259.379,165.923 260.879,161.589 265.5,158.5 Z"/></g>
<g><path style="opacity:1" fill="#adcafc" d="M 485.5,158.5 C 483.393,159.468 481.059,159.802 478.5,159.5C 478.5,164.5 478.5,169.5 478.5,174.5C 477.512,169.36 477.179,164.026 477.5,158.5C 480.167,158.5 482.833,158.5 485.5,158.5 Z"/></g>
<g><path style="opacity:1" fill="#1968f7" d="M 555.5,158.5 C 565.207,160.251 567.707,165.584 563,174.5C 555.286,178.157 550.786,175.657 549.5,167C 550.174,163.17 552.174,160.336 555.5,158.5 Z"/></g>
<g><path style="opacity:1" fill="#79acfa" d="M 581.5,158.5 C 583.167,158.5 584.833,158.5 586.5,158.5C 586.5,164.5 586.5,170.5 586.5,176.5C 585.511,171.025 585.178,165.358 585.5,159.5C 583.901,159.768 582.568,159.434 581.5,158.5 Z"/></g>
<g><path style="opacity:1" fill="#636363" d="M 1109.5,163.5 C 1108.83,166.167 1108.17,168.833 1107.5,171.5C 1106.5,171.5 1105.5,171.5 1104.5,171.5C 1103.33,166.826 1101.66,162.326 1099.5,158C 1100.64,157.251 1101.64,157.417 1102.5,158.5C 1103.45,161.701 1104.79,164.701 1106.5,167.5C 1107.52,166.099 1108.52,164.765 1109.5,163.5 Z"/></g>
<g><path style="opacity:1" fill="#5c5c5c" d="M 1143.5,156.5 C 1145.98,156.051 1147.98,156.717 1149.5,158.5C 1149.33,158.833 1149.17,159.167 1149,159.5C 1146.78,156.697 1144.94,156.863 1143.5,160C 1143.64,160.772 1143.98,161.439 1144.5,162C 1150.62,163.01 1151.96,166.01 1148.5,171C 1146.1,171.814 1143.76,171.647 1141.5,170.5C 1143.34,170.245 1145.34,170.078 1147.5,170C 1148.83,168.667 1148.83,167.333 1147.5,166C 1141.3,164.807 1139.97,161.64 1143.5,156.5 Z"/></g>
<g><path style="opacity:1" fill="#6b6b6b" d="M 1118.5,156.5 C 1125.18,155.186 1128.51,157.853 1128.5,164.5C 1124.83,164.5 1121.17,164.5 1117.5,164.5C 1118.53,170.864 1121.87,172.198 1127.5,168.5C 1127.83,168.833 1128.17,169.167 1128.5,169.5C 1124.37,172.133 1120.2,172.133 1116,169.5C 1113.46,164.438 1114.29,160.105 1118.5,156.5 Z"/></g>
<g><path style="opacity:1" fill="#f5f5f5" d="M 1120.5,157.5 C 1123.83,157.5 1125.5,159.167 1125.5,162.5C 1122.75,162.813 1120.09,162.48 1117.5,161.5C 1118.17,159.84 1119.17,158.507 1120.5,157.5 Z"/></g>
<g><path style="opacity:1" fill="#c9c9c9" d="M 1157.5,171.5 C 1156.79,172.404 1155.79,172.737 1154.5,172.5C 1154.5,167.167 1154.5,161.833 1154.5,156.5C 1155.83,156.5 1157.17,156.5 1158.5,156.5C 1158.82,161.695 1158.49,166.695 1157.5,171.5 Z"/></g>
<g><path style="opacity:1" fill="#565656" d="M 1157.5,171.5 C 1156.2,169.603 1155.53,167.269 1155.5,164.5C 1155.83,162.167 1156.17,159.833 1156.5,157.5C 1157.49,162.12 1157.83,166.786 1157.5,171.5 Z"/></g>
<g><path style="opacity:1" fill="#676767" d="M 1074.5,156.5 C 1076.12,156.36 1077.29,157.027 1078,158.5C 1080.93,155.941 1083.93,155.941 1087,158.5C 1087.5,162.821 1087.67,167.154 1087.5,171.5C 1086.5,171.5 1085.5,171.5 1084.5,171.5C 1084.67,167.486 1084.5,163.486 1084,159.5C 1081.73,158.065 1079.73,158.398 1078,160.5C 1077.5,164.152 1077.33,167.818 1077.5,171.5C 1076.5,171.5 1075.5,171.5 1074.5,171.5C 1074.5,166.5 1074.5,161.5 1074.5,156.5 Z"/></g>
<g><path style="opacity:1" fill="#707070" d="M 1095.5,171.5 C 1094.83,171.5 1094.17,171.5 1093.5,171.5C 1094.17,152.833 1094.83,152.833 1095.5,171.5 Z"/></g>
<g><path style="opacity:1" fill="#626262" d="M 1189.5,156.5 C 1191.47,156.261 1193.3,156.594 1195,157.5C 1195.69,158.332 1195.52,158.998 1194.5,159.5C 1192.14,156.734 1190.48,157.067 1189.5,160.5C 1192.06,162.412 1194.39,164.579 1196.5,167C 1194.98,171.459 1191.98,172.625 1187.5,170.5C 1189.22,170.254 1191.22,170.254 1193.5,170.5C 1193.66,169.127 1193.49,167.793 1193,166.5C 1190.08,165.472 1187.92,163.638 1186.5,161C 1186.96,159.06 1187.96,157.56 1189.5,156.5 Z"/></g>
<g><path style="opacity:1" fill="#649efa" d="M 404.5,161.5 C 405.404,162.209 405.737,163.209 405.5,164.5C 400.786,164.827 396.12,164.493 391.5,163.5C 391.624,162.893 391.957,162.56 392.5,162.5C 394.304,163.162 396.304,163.495 398.5,163.5C 400.952,163.461 402.952,162.794 404.5,161.5 Z"/></g>
<g><path style="opacity:1" fill="#5f5f5f" d="M 1174.5,156.5 C 1177.27,156.22 1179.77,156.887 1182,158.5C 1181.94,162.982 1182.77,167.148 1184.5,171C 1182.29,171.732 1180.63,171.065 1179.5,169C 1180.38,167.644 1180.71,166.144 1180.5,164.5C 1175.52,163.65 1173.52,165.483 1174.5,170C 1175.83,170.333 1177.17,170.667 1178.5,171C 1172.91,172.913 1170.74,171.08 1172,165.5C 1175.1,164.366 1177.93,162.866 1180.5,161C 1178.78,156.986 1176.28,156.486 1173,159.5C 1172.76,158.212 1173.26,157.212 1174.5,156.5 Z"/></g>
<g><path style="opacity:1" fill="#71a6fa" d="M 58.5,158.5 C 59.4767,161.287 59.81,164.287 59.5,167.5C 54.5,167.5 49.5,167.5 44.5,167.5C 48.97,166.514 53.6367,166.181 58.5,166.5C 58.5,163.833 58.5,161.167 58.5,158.5 Z"/></g>
<g><path style="opacity:1" fill="#66a1fa" d="M 333.5,158.5 C 334.477,161.287 334.81,164.287 334.5,167.5C 329.5,167.5 324.5,167.5 319.5,167.5C 323.97,166.514 328.637,166.181 333.5,166.5C 333.5,163.833 333.5,161.167 333.5,158.5 Z"/></g>
<g><path style="opacity:1" fill="#bad4fc" d="M 416.5,169.5 C 408.281,169.846 400.281,170.846 392.5,172.5C 391.596,171.791 391.263,170.791 391.5,169.5C 399.833,169.5 408.167,169.5 416.5,169.5 Z"/></g>
<g><path style="opacity:1" fill="#565656" d="M 1310.5,168.5 C 1314.48,168.629 1315.82,170.463 1314.5,174C 1312.87,174.494 1311.2,174.66 1309.5,174.5C 1309.33,172.379 1309.66,170.379 1310.5,168.5 Z"/></g>
<g><path style="opacity:1" fill="#aeccfc" d="M 44.5,176.5 C 50.1667,176.5 55.8333,176.5 61.5,176.5C 61.81,179.713 61.4767,182.713 60.5,185.5C 60.5,182.833 60.5,180.167 60.5,177.5C 54.9738,177.821 49.6405,177.488 44.5,176.5 Z"/></g>
<g><path style="opacity:1" fill="#484848" d="M 1062.5,191.5 C 1062.5,195.167 1062.5,198.833 1062.5,202.5C 1061.64,210.466 1061.3,218.466 1061.5,226.5C 1060.5,226.5 1059.5,226.5 1058.5,226.5C 1058.5,212.167 1058.5,197.833 1058.5,183.5C 1059.5,183.5 1060.5,183.5 1061.5,183.5C 1061.58,186.206 1061.91,188.873 1062.5,191.5 Z"/></g>
<g><path style="opacity:1" fill="#505050" d="M 1099.5,182.5 C 1102.85,182.335 1106.18,182.502 1109.5,183C 1111.33,183.273 1112.83,184.107 1114,185.5C 1115.27,193.062 1115.93,200.729 1116,208.5C 1116.75,209.126 1117.58,209.626 1118.5,210C 1115.46,212.078 1112.79,211.578 1110.5,208.5C 1104.69,212.752 1099.19,212.418 1094,207.5C 1093.23,204.901 1093.4,202.401 1094.5,200C 1099,196.956 1104,195.289 1109.5,195C 1112.22,191.182 1111.55,187.849 1107.5,185C 1103.61,183.86 1100.28,184.693 1097.5,187.5C 1097.17,187 1096.83,186.5 1096.5,186C 1097.54,184.826 1098.54,183.659 1099.5,182.5 Z"/></g>
<g><path style="opacity:1" fill="#444444" d="M 1134.5,188.5 C 1133.89,189.391 1133.56,190.391 1133.5,191.5C 1132.51,197.645 1132.18,203.978 1132.5,210.5C 1131.5,210.5 1130.5,210.5 1129.5,210.5C 1129.5,201.5 1129.5,192.5 1129.5,183.5C 1130.5,183.5 1131.5,183.5 1132.5,183.5C 1132.08,185.781 1132.74,187.448 1134.5,188.5 Z"/></g>
<g><path style="opacity:1" fill="#4a4a4a" d="M 1207.5,186.5 C 1208.17,187.167 1208.83,187.833 1209.5,188.5C 1208.66,188.842 1208.33,189.508 1208.5,190.5C 1207.51,196.979 1207.18,203.646 1207.5,210.5C 1206.5,210.5 1205.5,210.5 1204.5,210.5C 1204.67,203.159 1204.5,195.826 1204,188.5C 1203.62,187.944 1203.12,187.611 1202.5,187.5C 1202.39,186.883 1202.06,186.383 1201.5,186C 1198.83,185.333 1196.17,185.333 1193.5,186C 1191.86,187.129 1190.86,188.629 1190.5,190.5C 1189.51,196.979 1189.18,203.646 1189.5,210.5C 1188.18,210.33 1187.01,210.663 1186,211.5C 1185.83,202.657 1185.33,193.99 1184.5,185.5C 1184.5,184.5 1184.5,183.5 1184.5,182.5C 1187.08,182.083 1189.25,182.75 1191,184.5C 1191.5,184 1192,183.5 1192.5,183C 1196.17,182.333 1199.83,182.333 1203.5,183C 1205.32,183.66 1206.66,184.827 1207.5,186.5 Z"/></g>
<g><path style="opacity:1" fill="#484848" d="M 1222.5,183.5 C 1224.75,183.916 1226.25,185.249 1227,187.5C 1227.5,190.482 1227.66,193.482 1227.5,196.5C 1226.51,200.97 1226.18,205.637 1226.5,210.5C 1225.21,210.263 1224.21,210.596 1223.5,211.5C 1222.8,203.599 1222.14,195.599 1221.5,187.5C 1221.46,186.417 1221.13,185.417 1220.5,184.5C 1220.96,183.702 1221.62,183.369 1222.5,183.5 Z"/></g>
<g><path style="opacity:1" fill="#494949" d="M 1349.5,185.5 C 1350.44,193.779 1350.77,202.112 1350.5,210.5C 1349.5,210.5 1348.5,210.5 1347.5,210.5C 1347.82,203.646 1347.49,196.979 1346.5,190.5C 1343.99,185.278 1339.99,184.112 1334.5,187C 1332.96,188.11 1332.3,189.61 1332.5,191.5C 1331.51,197.645 1331.18,203.978 1331.5,210.5C 1330.17,210.5 1328.83,210.5 1327.5,210.5C 1327.5,201.5 1327.5,192.5 1327.5,183.5C 1328.83,183.5 1330.17,183.5 1331.5,183.5C 1331.34,184.873 1331.51,186.207 1332,187.5C 1332.72,186.956 1333.22,186.289 1333.5,185.5C 1338.08,182.138 1343.08,181.638 1348.5,184C 1349.06,184.383 1349.39,184.883 1349.5,185.5 Z"/></g>
<g><path style="opacity:1" fill="#565656" d="M 1365.5,182.5 C 1369.18,182.335 1372.85,182.501 1376.5,183C 1378.33,183.273 1379.83,184.107 1381,185.5C 1382.23,193.089 1382.9,200.756 1383,208.5C 1383.75,209.126 1384.58,209.626 1385.5,210C 1382.31,212.262 1379.64,211.762 1377.5,208.5C 1372.27,212.374 1367.1,212.374 1362,208.5C 1359.21,202.924 1360.71,199.09 1366.5,197C 1369.79,196.118 1373.12,195.452 1376.5,195C 1379.22,186.428 1376.22,183.095 1367.5,185C 1363.15,189.277 1362.48,188.444 1365.5,182.5 Z"/></g>
<g><path style="opacity:1" fill="#fbfbfb" d="M 1073.5,184.5 C 1077.85,187.024 1079.85,190.857 1079.5,196C 1079.6,200.743 1078.26,204.91 1075.5,208.5C 1068.93,211.045 1064.59,209.045 1062.5,202.5C 1062.5,198.833 1062.5,195.167 1062.5,191.5C 1064.34,186.325 1068.01,183.991 1073.5,184.5 Z"/></g>
<g><path style="opacity:1" fill="#4d4d4d" d="M 1069.5,182.5 C 1075.87,181.77 1080.71,184.104 1084,189.5C 1084.83,194.589 1084.49,199.589 1083,204.5C 1081.28,207.717 1078.78,210.05 1075.5,211.5C 1073.14,211.663 1070.81,211.497 1068.5,211C 1070.5,210.667 1072.5,210.333 1074.5,210C 1075.06,209.617 1075.39,209.117 1075.5,208.5C 1078.26,204.91 1079.6,200.743 1079.5,196C 1079.85,190.857 1077.85,187.024 1073.5,184.5C 1072.17,183.833 1070.83,183.167 1069.5,182.5 Z"/></g>
<g><path style="opacity:1" fill="#595959" d="M 1155.5,182.5 C 1159.18,182.335 1162.85,182.501 1166.5,183C 1168.3,183.972 1169.97,185.139 1171.5,186.5C 1172.13,193.808 1172.8,201.141 1173.5,208.5C 1175.27,209.035 1175.6,209.869 1174.5,211C 1171.36,212.041 1168.86,211.207 1167,208.5C 1161.53,212.379 1156.2,212.379 1151,208.5C 1148.16,203.053 1149.66,199.22 1155.5,197C 1159.14,196.028 1162.81,195.194 1166.5,194.5C 1168.01,185.554 1164.34,182.72 1155.5,186C 1153.24,189.342 1152.4,189.175 1153,185.5C 1154.04,184.627 1154.88,183.627 1155.5,182.5 Z"/></g>
<g><path style="opacity:1" fill="#777777" d="M 1222.5,183.5 C 1221.62,183.369 1220.96,183.702 1220.5,184.5C 1221.13,185.417 1221.46,186.417 1221.5,187.5C 1217.23,184.633 1213.23,184.967 1209.5,188.5C 1208.83,187.833 1208.17,187.167 1207.5,186.5C 1209.89,185.627 1211.89,184.127 1213.5,182C 1215,181.833 1216.5,181.667 1218,181.5C 1219.99,181.569 1221.49,182.235 1222.5,183.5 Z"/></g>
<g><path style="opacity:1" fill="#525252" d="M 1297.5,173.5 C 1296.5,185.655 1296.17,197.989 1296.5,210.5C 1295.17,210.5 1293.83,210.5 1292.5,210.5C 1292.66,209.127 1292.49,207.793 1292,206.5C 1287.43,211.681 1281.93,212.847 1275.5,210C 1271.14,206.747 1269.47,202.414 1270.5,197C 1270.83,184.015 1277.16,179.682 1289.5,184C 1290.7,184.903 1291.53,186.069 1292,187.5C 1292.5,180.174 1292.67,172.841 1292.5,165.5C 1294.17,165.5 1295.83,165.5 1297.5,165.5C 1297.5,168.167 1297.5,170.833 1297.5,173.5 Z"/></g>
<g><path style="opacity:1" fill="#f8f8f8" d="M 1280.5,184.5 C 1292,185.221 1295.84,191.221 1292,202.5C 1290.14,208.178 1286.31,210.345 1280.5,209C 1278.33,208.167 1276.83,206.667 1276,204.5C 1275.33,199.5 1275.33,194.5 1276,189.5C 1277.71,187.963 1279.21,186.296 1280.5,184.5 Z"/></g>
<g><path style="opacity:1" fill="#868686" d="M 1134.5,188.5 C 1132.74,187.448 1132.08,185.781 1132.5,183.5C 1131.5,183.5 1130.5,183.5 1129.5,183.5C 1129.5,192.5 1129.5,201.5 1129.5,210.5C 1130.5,210.5 1131.5,210.5 1132.5,210.5C 1132.18,203.978 1132.51,197.645 1133.5,191.5C 1133.5,198.167 1133.5,204.833 1133.5,211.5C 1131.83,211.5 1130.17,211.5 1128.5,211.5C 1128.5,201.833 1128.5,192.167 1128.5,182.5C 1130.17,182.5 1131.83,182.5 1133.5,182.5C 1133.34,184.199 1133.51,185.866 1134,187.5C 1135.79,183.199 1138.95,181.199 1143.5,181.5C 1143.5,183.5 1143.5,185.5 1143.5,187.5C 1140.39,187.264 1137.39,187.597 1134.5,188.5 Z"/></g>
<g><path style="opacity:1" fill="#7b7b7b" d="M 1310.5,183.5 C 1310.5,192.5 1310.5,201.5 1310.5,210.5C 1311.5,210.5 1312.5,210.5 1313.5,210.5C 1313.5,201.5 1313.5,192.5 1313.5,183.5C 1314.49,192.652 1314.83,201.985 1314.5,211.5C 1312.83,211.5 1311.17,211.5 1309.5,211.5C 1309.17,201.985 1309.51,192.652 1310.5,183.5 Z"/></g>
<g><path style="opacity:1" fill="#454545" d="M 1310.5,183.5 C 1311.5,183.5 1312.5,183.5 1313.5,183.5C 1313.5,192.5 1313.5,201.5 1313.5,210.5C 1312.5,210.5 1311.5,210.5 1310.5,210.5C 1310.5,201.5 1310.5,192.5 1310.5,183.5 Z"/></g>
<g><path style="opacity:1" fill="#939393" d="M 1297.5,173.5 C 1297.5,186.167 1297.5,198.833 1297.5,211.5C 1295.59,211.784 1293.92,211.451 1292.5,210.5C 1293.83,210.5 1295.17,210.5 1296.5,210.5C 1296.17,197.989 1296.5,185.655 1297.5,173.5 Z"/></g>
<g><path style="opacity:1" fill="#949494" d="M 1349.5,185.5 C 1350.12,185.611 1350.62,185.944 1351,186.5C 1351.5,194.827 1351.67,203.16 1351.5,211.5C 1349.5,211.5 1347.5,211.5 1345.5,211.5C 1346.09,204.515 1346.42,197.515 1346.5,190.5C 1347.49,196.979 1347.82,203.646 1347.5,210.5C 1348.5,210.5 1349.5,210.5 1350.5,210.5C 1350.77,202.112 1350.44,193.779 1349.5,185.5 Z"/></g>
<g><path style="opacity:1" fill="#c2c2c2" d="M 1333.5,185.5 C 1333.22,186.289 1332.72,186.956 1332,187.5C 1331.51,186.207 1331.34,184.873 1331.5,183.5C 1330.17,183.5 1328.83,183.5 1327.5,183.5C 1327.5,192.5 1327.5,201.5 1327.5,210.5C 1328.83,210.5 1330.17,210.5 1331.5,210.5C 1331.18,203.978 1331.51,197.645 1332.5,191.5C 1332.5,198.5 1332.5,205.5 1332.5,212.5C 1330.5,212.5 1328.5,212.5 1326.5,212.5C 1326.5,202.5 1326.5,192.5 1326.5,182.5C 1328.5,182.5 1330.5,182.5 1332.5,182.5C 1332.26,183.791 1332.6,184.791 1333.5,185.5 Z"/></g>
<g><path style="opacity:1" fill="#818181" d="M 1069.5,182.5 C 1070.83,183.167 1072.17,183.833 1073.5,184.5C 1068.01,183.991 1064.34,186.325 1062.5,191.5C 1061.91,188.873 1061.58,186.206 1061.5,183.5C 1060.5,183.5 1059.5,183.5 1058.5,183.5C 1058.5,197.833 1058.5,212.167 1058.5,226.5C 1059.5,226.5 1060.5,226.5 1061.5,226.5C 1061.3,218.466 1061.64,210.466 1062.5,202.5C 1064.59,209.045 1068.93,211.045 1075.5,208.5C 1075.39,209.117 1075.06,209.617 1074.5,210C 1072.5,210.333 1070.5,210.667 1068.5,211C 1070.81,211.497 1073.14,211.663 1075.5,211.5C 1070.36,213.652 1066.19,212.318 1063,207.5C 1062.5,214.158 1062.33,220.825 1062.5,227.5C 1060.83,227.5 1059.17,227.5 1057.5,227.5C 1057.5,212.5 1057.5,197.5 1057.5,182.5C 1059.17,182.5 1060.83,182.5 1062.5,182.5C 1062.34,183.873 1062.51,185.207 1063,186.5C 1064.68,184.334 1066.84,183.001 1069.5,182.5 Z"/></g>
<g><path style="opacity:1" fill="#7c7c7c" d="M 1202.5,187.5 C 1203.12,187.611 1203.62,187.944 1204,188.5C 1204.5,195.826 1204.67,203.159 1204.5,210.5C 1205.5,210.5 1206.5,210.5 1207.5,210.5C 1207.18,203.646 1207.51,196.979 1208.5,190.5C 1208.5,197.5 1208.5,204.5 1208.5,211.5C 1206.83,211.5 1205.17,211.5 1203.5,211.5C 1203.77,203.445 1203.44,195.445 1202.5,187.5 Z"/></g>
<g><path style="opacity:1" fill="#f2f2f2" d="M 1108.5,196.5 C 1109.5,196.5 1110.5,196.5 1111.5,196.5C 1113.57,203.939 1110.9,208.272 1103.5,209.5C 1098.92,208.175 1097.42,205.175 1099,200.5C 1102,198.488 1105.17,197.155 1108.5,196.5 Z"/></g>
<g><path style="opacity:1" fill="#f0f0f0" d="M 1163.5,196.5 C 1164.83,196.5 1166.17,196.5 1167.5,196.5C 1167.82,199.898 1167.49,203.232 1166.5,206.5C 1159.27,211.719 1155.43,210.052 1155,201.5C 1157.36,198.907 1160.19,197.24 1163.5,196.5 Z"/></g>
<g><path style="opacity:1" fill="#f7f7f7" d="M 1374.5,196.5 C 1375.5,196.5 1376.5,196.5 1377.5,196.5C 1377.67,199.85 1377.5,203.183 1377,206.5C 1369.92,211.667 1366.26,210 1366,201.5C 1368.12,198.466 1370.95,196.8 1374.5,196.5 Z"/></g>
<g><path style="opacity:1" fill="#c8c8c8" d="M 1184.5,185.5 C 1185.33,193.99 1185.83,202.657 1186,211.5C 1187.01,210.663 1188.18,210.33 1189.5,210.5C 1189.18,203.646 1189.51,196.979 1190.5,190.5C 1190.5,197.833 1190.5,205.167 1190.5,212.5C 1188.5,212.5 1186.5,212.5 1184.5,212.5C 1184.5,203.5 1184.5,194.5 1184.5,185.5 Z"/></g>
<g><path style="opacity:1" fill="#555555" d="M 1242.5,182.5 C 1246.18,182.335 1249.85,182.501 1253.5,183C 1255.29,183.785 1256.79,184.951 1258,186.5C 1258.33,193.5 1258.67,200.5 1259,207.5C 1259.77,208.849 1260.94,209.682 1262.5,210C 1259,212.294 1256,211.794 1253.5,208.5C 1247.62,212.825 1242.12,212.491 1237,207.5C 1235.9,200.919 1238.73,197.086 1245.5,196C 1253.67,197.068 1256.17,193.901 1253,186.5C 1248.04,183.351 1243.7,184.018 1240,188.5C 1239.83,187.833 1239.67,187.167 1239.5,186.5C 1240.29,184.959 1241.29,183.626 1242.5,182.5 Z"/></g>
<g><path style="opacity:1" fill="#f6f6f6" d="M 1251.5,196.5 C 1252.5,196.5 1253.5,196.5 1254.5,196.5C 1256.31,203.269 1253.98,207.602 1247.5,209.5C 1242.92,208.182 1241.42,205.182 1243,200.5C 1245.56,198.376 1248.4,197.042 1251.5,196.5 Z"/></g>
<g><path style="opacity:1" fill="#878787" d="M 1227.5,196.5 C 1227.5,201.5 1227.5,206.5 1227.5,211.5C 1226.17,211.5 1224.83,211.5 1223.5,211.5C 1224.21,210.596 1225.21,210.263 1226.5,210.5C 1226.18,205.637 1226.51,200.97 1227.5,196.5 Z"/></g>
<g><path style="opacity:1" fill="#f4f7fe" d="M 344.5,230.5 C 350.831,229.029 353.998,231.362 354,237.5C 351.391,242.568 347.724,243.568 343,240.5C 340.739,236.654 341.239,233.32 344.5,230.5 Z"/></g>
<g><path style="opacity:1" fill="#fafbfe" d="M 323.5,234.5 C 327.167,234.5 330.833,234.5 334.5,234.5C 334.5,250.167 334.5,265.833 334.5,281.5C 330.833,281.5 327.167,281.5 323.5,281.5C 323.657,280.127 323.49,278.793 323,277.5C 317.348,281.743 311.181,282.577 304.5,280C 295.88,271.633 294.38,262.133 300,251.5C 304.618,245.947 310.451,244.114 317.5,246C 319.624,247.122 321.457,248.622 323,250.5C 323.499,245.177 323.666,239.844 323.5,234.5 Z"/></g>
<g><path style="opacity:1" fill="#fafcfe" d="M 33.5,236.5 C 41.1739,236.334 48.8406,236.5 56.5,237C 65.8127,239.786 69.3127,245.953 67,255.5C 65.0982,260.4 61.5982,263.567 56.5,265C 52.5138,265.499 48.5138,265.666 44.5,265.5C 44.5,270.833 44.5,276.167 44.5,281.5C 40.8333,281.5 37.1667,281.5 33.5,281.5C 33.5,266.5 33.5,251.5 33.5,236.5 Z"/></g>
<g><path style="opacity:1" fill="#0c65f7" d="M 44.5,245.5 C 47.5184,245.335 50.5184,245.502 53.5,246C 57.5,249.333 57.5,252.667 53.5,256C 50.5184,256.498 47.5184,256.665 44.5,256.5C 44.5,252.833 44.5,249.167 44.5,245.5 Z"/></g>
<g><path style="opacity:1" fill="#fafbfe" d="M 98.5,281.5 C 98.6602,279.801 98.4935,278.134 98,276.5C 97.2828,277.044 96.7828,277.711 96.5,278.5C 85.3714,284.68 77.2047,282.013 72,270.5C 68.9825,259.731 72.1492,251.565 81.5,246C 87.3163,244.591 92.483,245.758 97,249.5C 97.49,248.207 97.6567,246.873 97.5,245.5C 101.167,245.5 104.833,245.5 108.5,245.5C 108.5,257.5 108.5,269.5 108.5,281.5C 105.167,281.5 101.833,281.5 98.5,281.5 Z"/></g>
<g><path style="opacity:1" fill="#fdfefe" d="M 138.5,245.5 C 138.5,249.167 138.5,252.833 138.5,256.5C 136.585,256.216 134.919,256.549 133.5,257.5C 130.708,257.452 128.875,258.785 128,261.5C 127.5,268.158 127.334,274.825 127.5,281.5C 124.167,281.5 120.833,281.5 117.5,281.5C 117.5,269.833 117.5,258.167 117.5,246.5C 120.833,246.5 124.167,246.5 127.5,246.5C 127.34,248.199 127.506,249.866 128,251.5C 130.412,247.587 133.912,245.587 138.5,245.5 Z"/></g>
<g><path style="opacity:1" fill="#7daffa" d="M 138.5,245.5 C 139.483,249.298 139.817,253.298 139.5,257.5C 137.5,257.5 135.5,257.5 133.5,257.5C 134.919,256.549 136.585,256.216 138.5,256.5C 138.5,252.833 138.5,249.167 138.5,245.5 Z"/></g>
<g><path style="opacity:1" fill="#fbfcfe" d="M 167.5,249.5 C 167.56,250.043 167.893,250.376 168.5,250.5C 169.429,249.311 169.762,247.978 169.5,246.5C 172.833,246.5 176.167,246.5 179.5,246.5C 179.5,258.167 179.5,269.833 179.5,281.5C 175.833,281.5 172.167,281.5 168.5,281.5C 168.657,280.127 168.49,278.793 168,277.5C 165.307,280.857 161.807,282.191 157.5,281.5C 146.774,280.301 141.774,274.134 142.5,263C 142.836,249.837 149.502,244.171 162.5,246C 164.584,246.697 166.251,247.864 167.5,249.5 Z"/></g>
<g><path style="opacity:1" fill="#bcd6fc" d="M 179.5,246.5 C 176.167,246.5 172.833,246.5 169.5,246.5C 169.762,247.978 169.429,249.311 168.5,250.5C 167.893,250.376 167.56,250.043 167.5,249.5C 168.434,248.432 168.768,247.099 168.5,245.5C 172.371,245.185 176.038,245.518 179.5,246.5 Z"/></g>
<g><path style="opacity:1" fill="#f9fbfe" d="M 187.5,245.5 C 191.167,245.5 194.833,245.5 198.5,245.5C 198.343,246.873 198.51,248.207 199,249.5C 206.909,243.822 214.243,244.489 221,251.5C 227.221,244.954 234.387,243.787 242.5,248C 244.894,249.952 246.394,252.452 247,255.5C 247.5,264.16 247.666,272.827 247.5,281.5C 243.833,281.5 240.167,281.5 236.5,281.5C 236.666,273.826 236.5,266.159 236,258.5C 231.951,253.182 227.951,253.182 224,258.5C 223.5,266.159 223.334,273.826 223.5,281.5C 219.833,281.5 216.167,281.5 212.5,281.5C 212.666,274.159 212.5,266.826 212,259.5C 207.667,252.833 203.333,252.833 199,259.5C 198.5,266.826 198.334,274.159 198.5,281.5C 194.833,281.5 191.167,281.5 187.5,281.5C 187.5,269.5 187.5,257.5 187.5,245.5 Z"/></g>
<g><path style="opacity:1" fill="#fafbfe" d="M 280.5,281.5 C 280.66,279.801 280.494,278.134 280,276.5C 279.283,277.044 278.783,277.711 278.5,278.5C 267.371,284.68 259.205,282.013 254,270.5C 250.983,259.731 254.149,251.565 263.5,246C 269.316,244.591 274.483,245.758 279,249.5C 279.49,248.207 279.657,246.873 279.5,245.5C 283.167,245.5 286.833,245.5 290.5,245.5C 290.5,257.5 290.5,269.5 290.5,281.5C 287.167,281.5 283.833,281.5 280.5,281.5 Z"/></g>
<g><path style="opacity:1" fill="#f8fafe" d="M 361.5,245.5 C 365.167,245.5 368.833,245.5 372.5,245.5C 372.343,246.873 372.51,248.207 373,249.5C 380.275,243.938 387.275,244.271 394,250.5C 394.667,251.833 395.333,253.167 396,254.5C 396.5,263.494 396.666,272.494 396.5,281.5C 392.833,281.5 389.167,281.5 385.5,281.5C 385.666,273.493 385.5,265.493 385,257.5C 380.96,253.65 376.96,253.65 373,257.5C 372.5,265.493 372.334,273.493 372.5,281.5C 368.833,281.5 365.167,281.5 361.5,281.5C 361.5,269.5 361.5,257.5 361.5,245.5 Z"/></g>
<g><path style="opacity:1" fill="#fbfcfe" d="M 427.5,249.5 C 427.56,250.043 427.893,250.376 428.5,250.5C 429.429,249.311 429.762,247.978 429.5,246.5C 432.833,246.5 436.167,246.5 439.5,246.5C 439.5,258.167 439.5,269.833 439.5,281.5C 435.833,281.5 432.167,281.5 428.5,281.5C 428.97,277.03 427.97,276.53 425.5,280C 410.556,284.351 402.889,278.684 402.5,263C 402.836,249.837 409.502,244.171 422.5,246C 424.584,246.697 426.251,247.864 427.5,249.5 Z"/></g>
<g><path style="opacity:1" fill="#b6d2fc" d="M 439.5,246.5 C 436.167,246.5 432.833,246.5 429.5,246.5C 429.762,247.978 429.429,249.311 428.5,250.5C 427.893,250.376 427.56,250.043 427.5,249.5C 428.434,248.432 428.768,247.099 428.5,245.5C 432.371,245.185 436.038,245.518 439.5,246.5 Z"/></g>
<g><path style="opacity:1" fill="#a4c7fc" d="M 127.5,246.5 C 124.167,246.5 120.833,246.5 117.5,246.5C 117.5,258.167 117.5,269.833 117.5,281.5C 116.505,269.678 116.172,257.678 116.5,245.5C 120.371,245.185 124.038,245.518 127.5,246.5 Z"/></g>
<g><path style="opacity:1" fill="#fefffe" d="M 342.5,246.5 C 345.833,246.5 349.167,246.5 352.5,246.5C 352.5,258.167 352.5,269.833 352.5,281.5C 349.167,281.5 345.833,281.5 342.5,281.5C 342.5,269.833 342.5,258.167 342.5,246.5 Z"/></g>
<g><path style="opacity:1" fill="#bed7fc" d="M 342.5,246.5 C 345.962,245.518 349.629,245.185 353.5,245.5C 353.828,257.678 353.495,269.678 352.5,281.5C 352.5,269.833 352.5,258.167 352.5,246.5C 349.167,246.5 345.833,246.5 342.5,246.5 Z"/></g>
<g><path style="opacity:1" fill="#1a68f7" d="M 87.5,254.5 C 96.6876,254.878 99.8543,259.544 97,268.5C 92.9654,273.364 88.632,273.698 84,269.5C 81.1712,263.376 82.3379,258.376 87.5,254.5 Z"/></g>
<g><path style="opacity:1" fill="#1567f7" d="M 158.5,254.5 C 166.982,254.765 170.149,259.099 168,267.5C 163.333,274.167 158.667,274.167 154,267.5C 152.379,261.923 153.879,257.589 158.5,254.5 Z"/></g>
<g><path style="opacity:1" fill="#1767f7" d="M 269.5,254.5 C 278.688,254.878 281.854,259.544 279,268.5C 273.168,274.415 268.501,273.748 265,266.5C 263.474,261.239 264.974,257.239 269.5,254.5 Z"/></g>
<g><path style="opacity:1" fill="#1667f7" d="M 313.5,254.5 C 323.24,256.316 325.74,261.649 321,270.5C 313.286,274.157 308.786,271.657 307.5,263C 308.174,259.17 310.174,256.336 313.5,254.5 Z"/></g>
<g><path style="opacity:1" fill="#1567f7" d="M 418.5,254.5 C 426.982,254.765 430.149,259.099 428,267.5C 423.333,274.167 418.667,274.167 414,267.5C 412.379,261.923 413.879,257.589 418.5,254.5 Z"/></g>
<g><path style="opacity:1" fill="#7eaffb" d="M 98.5,281.5 C 97.8333,280.5 97.1667,279.5 96.5,278.5C 96.7828,277.711 97.2828,277.044 98,276.5C 98.4935,278.134 98.6602,279.801 98.5,281.5 Z"/></g>
<g><path style="opacity:1" fill="#7eaffb" d="M 280.5,281.5 C 279.833,280.5 279.167,279.5 278.5,278.5C 278.783,277.711 279.283,277.044 280,276.5C 280.494,278.134 280.66,279.801 280.5,281.5 Z"/></g>
<g><path style="opacity:1" fill="#d2e0fd" d="M 94.5,313.5 C 95.5,313.5 96.5,313.5 97.5,313.5C 96.7542,317.31 95.7542,317.31 94.5,313.5 Z"/></g>
<g><path style="opacity:1" fill="#d8e5fd" d="M 492.5,313.5 C 495.957,313.667 496.29,314.667 493.5,316.5C 492.614,315.675 492.281,314.675 492.5,313.5 Z"/></g>
<g><path style="opacity:1" fill="#d4e2fd" d="M 710.5,313.5 C 713.957,313.667 714.29,314.667 711.5,316.5C 710.614,315.675 710.281,314.675 710.5,313.5 Z"/></g>
<g><path style="opacity:1" fill="#a7c8fc" d="M 180.5,318.5 C 181.5,319.167 182.5,319.833 183.5,320.5C 181.708,320.366 180.042,320.699 178.5,321.5C 177.79,319.254 177.29,316.92 177,314.5C 176.501,320.157 176.334,325.824 176.5,331.5C 175.51,325.69 175.177,319.69 175.5,313.5C 176.5,313.5 177.5,313.5 178.5,313.5C 178.338,315.527 178.505,317.527 179,319.5C 179.383,318.944 179.883,318.611 180.5,318.5 Z"/></g>
<g><path style="opacity:1" fill="#e9f0fe" d="M 178.5,321.5 C 179.069,325.329 178.402,328.663 176.5,331.5C 176.334,325.824 176.501,320.157 177,314.5C 177.29,316.92 177.79,319.254 178.5,321.5 Z"/></g>
<g><path style="opacity:1" fill="#dfebfd" d="M 250.5,313.5 C 253.548,313.494 254.048,314.494 252,316.5C 250.961,315.756 250.461,314.756 250.5,313.5 Z"/></g>
<g><path style="opacity:1" fill="#eef4fe" d="M 367.5,313.5 C 368.873,313.343 370.207,313.51 371.5,314C 369.561,314.908 368.561,316.408 368.5,318.5C 372.5,319.167 372.5,319.833 368.5,320.5C 368.823,324.226 368.489,327.893 367.5,331.5C 367.014,327.303 366.014,323.303 364.5,319.5C 366.043,317.747 367.043,315.747 367.5,313.5 Z"/></g>
<g><path style="opacity:1" fill="#deeafd" d="M 639.5,313.5 C 642.548,313.494 643.048,314.494 641,316.5C 639.961,315.756 639.461,314.756 639.5,313.5 Z"/></g>
<g><path style="opacity:1" fill="#e9f0fe" d="M 31.5,314.5 C 34.5719,314.183 37.5719,314.516 40.5,315.5C 38.2573,316.474 35.924,316.808 33.5,316.5C 33.5,318.5 33.5,320.5 33.5,322.5C 41.5,323.167 41.5,323.833 33.5,324.5C 33.5,326.167 33.5,327.833 33.5,329.5C 35.924,329.192 38.2573,329.526 40.5,330.5C 37.5719,331.484 34.5719,331.817 31.5,331.5C 31.5,325.833 31.5,320.167 31.5,314.5 Z"/></g>
<g><path style="opacity:1" fill="#edf3fe" d="M 173.5,319.5 C 172.167,319.5 170.833,319.5 169.5,319.5C 169.187,323.042 169.521,326.375 170.5,329.5C 171.675,329.281 172.675,329.614 173.5,330.5C 171.833,331.833 170.167,331.833 168.5,330.5C 167.865,326.633 167.199,322.8 166.5,319C 167.071,317.795 167.738,316.628 168.5,315.5C 169.386,316.325 169.719,317.325 169.5,318.5C 171.099,318.232 172.432,318.566 173.5,319.5 Z"/></g>
<g><path style="opacity:1" fill="#edf4fe" d="M 215.5,316.5 C 214.539,318.265 214.205,320.265 214.5,322.5C 216.5,322.5 218.5,322.5 220.5,322.5C 218.735,323.461 216.735,323.795 214.5,323.5C 214.205,325.735 214.539,327.735 215.5,329.5C 217.604,329.201 219.604,329.534 221.5,330.5C 218.572,331.484 215.572,331.817 212.5,331.5C 212.5,325.833 212.5,320.167 212.5,314.5C 215.572,314.183 218.572,314.516 221.5,315.5C 219.604,316.466 217.604,316.799 215.5,316.5 Z"/></g>
<g><path style="opacity:1" fill="#edf3fe" d="M 257.5,314.5 C 259.176,315.183 259.843,316.517 259.5,318.5C 263.5,319.167 263.5,319.833 259.5,320.5C 259.5,323.5 259.5,326.5 259.5,329.5C 260.675,329.281 261.675,329.614 262.5,330.5C 260.994,331.747 259.494,331.747 258,330.5C 257.985,326.585 257.152,322.918 255.5,319.5C 257.005,318.158 257.672,316.492 257.5,314.5 Z"/></g>
<g><path style="opacity:1" fill="#dae7fe" d="M 338.5,318.5 C 342.5,319.167 342.5,319.833 338.5,320.5C 338.5,323.5 338.5,326.5 338.5,329.5C 339.675,329.281 340.675,329.614 341.5,330.5C 339.389,331.848 337.555,331.515 336,329.5C 335.754,326.11 335.254,322.777 334.5,319.5C 334.624,318.893 334.957,318.56 335.5,318.5C 336.268,317.737 336.768,316.737 337,315.5C 337.232,316.737 337.732,317.737 338.5,318.5 Z"/></g>
<g><path style="opacity:1" fill="#96bdfb" d="M 338.5,318.5 C 337.732,317.737 337.232,316.737 337,315.5C 336.768,316.737 336.268,317.737 335.5,318.5C 335.5,317.167 335.5,315.833 335.5,314.5C 336.5,314.5 337.5,314.5 338.5,314.5C 338.5,315.833 338.5,317.167 338.5,318.5 Z"/></g>
<g><path style="opacity:1" fill="#e9f1fe" d="M 380.5,314.5 C 382.857,314.337 385.19,314.503 387.5,315C 391.87,316.978 392.536,319.811 389.5,323.5C 387.253,324.374 384.92,324.708 382.5,324.5C 382.808,326.924 382.474,329.257 381.5,331.5C 380.505,325.872 380.171,320.206 380.5,314.5 Z"/></g>
<g><path style="opacity:1" fill="#f2f6fe" d="M 539.5,316.5 C 538.539,318.265 538.205,320.265 538.5,322.5C 540.5,322.5 542.5,322.5 544.5,322.5C 542.735,323.461 540.735,323.795 538.5,323.5C 538.205,325.735 538.539,327.735 539.5,329.5C 541.604,329.201 543.604,329.534 545.5,330.5C 542.572,331.484 539.572,331.817 536.5,331.5C 536.5,325.833 536.5,320.167 536.5,314.5C 539.572,314.183 542.572,314.516 545.5,315.5C 543.604,316.466 541.604,316.799 539.5,316.5 Z"/></g>
<g><path style="opacity:1" fill="#dbe7fe" d="M 593.5,315.5 C 595.048,315.821 595.715,316.821 595.5,318.5C 599.5,319.167 599.5,319.833 595.5,320.5C 595.5,323.5 595.5,326.5 595.5,329.5C 596.675,329.281 597.675,329.614 598.5,330.5C 596.389,331.848 594.555,331.515 593,329.5C 592.754,326.11 592.254,322.777 591.5,319.5C 592.853,318.476 593.52,317.143 593.5,315.5 Z"/></g>
<g><path style="opacity:1" fill="#f6f9fe" d="M 646.5,315.5 C 648.048,315.821 648.715,316.821 648.5,318.5C 652.5,318.833 652.5,319.167 648.5,319.5C 648.5,322.833 648.5,326.167 648.5,329.5C 649.675,329.281 650.675,329.614 651.5,330.5C 649.994,331.747 648.494,331.747 647,330.5C 646.985,326.585 646.152,322.918 644.5,319.5C 645.853,318.476 646.52,317.143 646.5,315.5 Z"/></g>
<g><path style="opacity:1" fill="#8db8fb" d="M 812.5,316.5 C 810.052,315.527 807.385,315.194 804.5,315.5C 804.5,320.833 804.5,326.167 804.5,331.5C 803.511,326.025 803.178,320.358 803.5,314.5C 806.898,314.18 810.232,314.513 813.5,315.5C 813.376,316.107 813.043,316.44 812.5,316.5 Z"/></g>
<g><path style="opacity:1" fill="#e1eafe" d="M 812.5,316.5 C 810.5,316.5 808.5,316.5 806.5,316.5C 805.539,318.265 805.205,320.265 805.5,322.5C 807.833,322.5 810.167,322.5 812.5,322.5C 811.082,324.308 809.082,324.975 806.5,324.5C 806.5,326.167 806.5,327.833 806.5,329.5C 808.924,329.192 811.257,329.526 813.5,330.5C 810.572,331.484 807.572,331.817 804.5,331.5C 804.5,326.167 804.5,320.833 804.5,315.5C 807.385,315.194 810.052,315.527 812.5,316.5 Z"/></g>
<g><path style="opacity:1" fill="#dbe6fe" d="M 680.5,314.5 C 692.016,315.366 695.016,320.866 689.5,331C 689.82,332.653 690.82,333.653 692.5,334C 691.167,334.667 689.833,334.667 688.5,334C 684.631,332.318 680.798,330.485 677,328.5C 674.236,322.691 675.403,318.025 680.5,314.5 Z"/></g>
<g><path style="opacity:1" fill="#1467f7" d="M 681.5,316.5 C 688.314,316.49 690.814,319.823 689,326.5C 686.833,329.287 683.999,330.12 680.5,329C 676.321,324.414 676.655,320.247 681.5,316.5 Z"/></g>
<g><path style="opacity:1" fill="#1267f7" d="M 382.5,316.5 C 387.5,315.5 389.5,317.5 388.5,322.5C 386.5,322.5 384.5,322.5 382.5,322.5C 382.5,320.5 382.5,318.5 382.5,316.5 Z"/></g>
<g><path style="opacity:1" fill="#5b9af9" d="M 55.5,318.5 C 54.8771,325.255 55.5437,331.588 57.5,337.5C 56.791,338.404 55.791,338.737 54.5,338.5C 54.176,331.646 54.5093,324.979 55.5,318.5 Z"/></g>
<g><path style="opacity:1" fill="#f4f8fe" d="M 86.5,318.5 C 88.4584,318.908 90.4584,319.241 92.5,319.5C 91.3717,320.262 90.2051,320.929 89,321.5C 88.8236,324.882 88.3236,328.215 87.5,331.5C 86.5078,327.217 86.1744,322.884 86.5,318.5 Z"/></g>
<g><path style="opacity:1" fill="#e9f1fe" d="M 95.5,318.5 C 96.8001,320.223 97.4668,322.39 97.5,325C 97.1667,327.167 96.8333,329.333 96.5,331.5C 95.5078,327.217 95.1744,322.884 95.5,318.5 Z"/></g>
<g><path style="opacity:1" fill="#d1e1fd" d="M 250.5,318.5 C 251.5,318.5 252.5,318.5 253.5,318.5C 253.5,322.833 253.5,327.167 253.5,331.5C 252.5,331.5 251.5,331.5 250.5,331.5C 250.5,327.167 250.5,322.833 250.5,318.5 Z"/></g>
<g><path style="opacity:1" fill="#fbfcfe" d="M 410.5,318.5 C 412.458,318.908 414.458,319.241 416.5,319.5C 415.372,320.262 414.205,320.929 413,321.5C 412.824,324.882 412.324,328.215 411.5,331.5C 410.508,327.217 410.174,322.884 410.5,318.5 Z"/></g>
<g><path style="opacity:1" fill="#e2ebfe" d="M 435.5,318.5 C 437.497,319.167 439.664,319.167 442,318.5C 443.716,318.748 445.216,319.415 446.5,320.5C 449.703,317.878 452.87,317.878 456,320.5C 456.825,324.211 456.659,327.878 455.5,331.5C 454.676,328.215 454.176,324.882 454,321.5C 452,320.167 450,320.167 448,321.5C 447.502,324.817 447.335,328.15 447.5,331.5C 446.5,331.5 445.5,331.5 444.5,331.5C 444.665,328.15 444.498,324.817 444,321.5C 441.67,319.968 439.67,320.302 438,322.5C 437.821,325.553 437.321,328.553 436.5,331.5C 435.508,327.217 435.174,322.884 435.5,318.5 Z"/></g>
<g><path style="opacity:1" fill="#a8c7fc" d="M 488.5,331.5 C 488.666,325.824 488.499,320.157 488,314.5C 487.832,317.177 486.999,319.51 485.5,321.5C 483.958,320.699 482.292,320.366 480.5,320.5C 481.5,319.833 482.5,319.167 483.5,318.5C 484.496,318.414 485.329,318.748 486,319.5C 486.495,317.527 486.662,315.527 486.5,313.5C 487.5,313.5 488.5,313.5 489.5,313.5C 489.823,319.69 489.49,325.69 488.5,331.5 Z"/></g>
<g><path style="opacity:1" fill="#f4f8fe" d="M 492.5,318.5 C 493.8,320.223 494.467,322.39 494.5,325C 494.167,327.167 493.833,329.333 493.5,331.5C 492.508,327.217 492.174,322.884 492.5,318.5 Z"/></g>
<g><path style="opacity:1" fill="#eaf1fe" d="M 498.5,318.5 C 501.98,318.571 505.48,318.904 509,319.5C 510.691,323.417 510.857,327.417 509.5,331.5C 508.679,328.553 508.179,325.553 508,322.5C 505.975,320.275 503.642,319.941 501,321.5C 500.824,324.882 500.324,328.215 499.5,331.5C 498.508,327.217 498.174,322.884 498.5,318.5 Z"/></g>
<g><path style="opacity:1" fill="#e7effe" d="M 547.5,319.5 C 548.209,318.596 549.209,318.263 550.5,318.5C 550.976,322.095 552.142,325.428 554,328.5C 554.829,324.839 556.329,321.505 558.5,318.5C 558.833,319 559.167,319.5 559.5,320C 557.86,323.756 556.526,327.589 555.5,331.5C 554.178,331.67 553.011,331.337 552,330.5C 550.962,326.532 549.462,322.865 547.5,319.5 Z"/></g>
<g><path style="opacity:1" fill="#d1e1fd" d="M 639.5,318.5 C 640.5,318.5 641.5,318.5 642.5,318.5C 642.5,322.833 642.5,327.167 642.5,331.5C 641.5,331.5 640.5,331.5 639.5,331.5C 639.5,327.167 639.5,322.833 639.5,318.5 Z"/></g>
<g><path style="opacity:1" fill="#eef3fe" d="M 654.5,313.5 C 656.036,315.025 657.036,317.025 657.5,319.5C 664.227,316.887 667.227,319.22 666.5,326.5C 666.167,328.167 665.833,329.833 665.5,331.5C 664.679,328.553 664.179,325.553 664,322.5C 661.975,320.275 659.642,319.941 657,321.5C 656.824,324.882 656.324,328.215 655.5,331.5C 654.504,325.537 654.171,319.537 654.5,313.5 Z"/></g>
<g><path style="opacity:1" fill="#e8f0fe" d="M 695.5,318.5 C 697.25,321.355 698.083,324.689 698,328.5C 700,329.833 702,329.833 704,328.5C 704.176,325.118 704.676,321.785 705.5,318.5C 706.833,322.833 706.833,327.167 705.5,331.5C 702.998,331.379 700.332,331.212 697.5,331C 697,330.5 696.5,330 696,329.5C 695.501,325.848 695.335,322.182 695.5,318.5 Z"/></g>
<g><path style="opacity:1" fill="#f4f8fe" d="M 710.5,318.5 C 711.8,320.223 712.467,322.39 712.5,325C 712.167,327.167 711.833,329.333 711.5,331.5C 710.508,327.217 710.174,322.884 710.5,318.5 Z"/></g>
<g><path style="opacity:1" fill="#cedefd" d="M 730.5,313.5 C 731.5,313.5 732.5,313.5 733.5,313.5C 733.335,316.85 733.502,320.183 734,323.5C 735.046,321.91 736.213,320.41 737.5,319C 738.5,318.333 739.5,318.333 740.5,319C 739.072,321.185 737.405,323.185 735.5,325C 737.5,327 739.5,329 741.5,331C 740.167,331.667 738.833,331.667 737.5,331C 734.577,325.161 733.243,325.327 733.5,331.5C 732.5,331.5 731.5,331.5 730.5,331.5C 730.5,325.5 730.5,319.5 730.5,313.5 Z"/></g>
<g><path style="opacity:1" fill="#e8f0fe" d="M 112.5,321.5 C 112.5,322.833 112.5,324.167 112.5,325.5C 109.102,325.18 105.768,325.513 102.5,326.5C 102.624,327.107 102.957,327.44 103.5,327.5C 106.01,330.087 108.677,330.087 111.5,327.5C 112.571,329.325 111.904,330.492 109.5,331C 100.471,331.449 98.1376,327.615 102.5,319.5C 105.103,318.438 107.77,318.272 110.5,319C 111.381,319.708 112.047,320.542 112.5,321.5 Z"/></g>
<g><path style="opacity:1" fill="#d0e0fd" d="M 115.5,318.5 C 118.684,318.833 122.018,319 125.5,319C 126,319.5 126.5,320 127,320.5C 127.825,324.211 127.659,327.878 126.5,331.5C 125.676,328.215 125.176,324.882 125,321.5C 123,320.167 121,320.167 119,321.5C 118.502,324.817 118.335,328.15 118.5,331.5C 117.5,331.5 116.5,331.5 115.5,331.5C 115.5,327.167 115.5,322.833 115.5,318.5 Z"/></g>
<g><path style="opacity:1" fill="#e5eefe" d="M 267.5,318.5 C 273.686,317.042 277.019,319.375 277.5,325.5C 274.167,325.5 270.833,325.5 267.5,325.5C 267.33,326.822 267.663,327.989 268.5,329C 271.707,329.415 274.707,329.082 277.5,328C 274.451,331.787 270.784,332.453 266.5,330C 263.751,325.908 264.084,322.075 267.5,318.5 Z"/></g>
<g><path style="opacity:1" fill="#e4edfe" d="M 280.5,318.5 C 282.497,319.167 284.664,319.167 287,318.5C 288.716,318.748 290.216,319.415 291.5,320.5C 294.703,317.878 297.87,317.878 301,320.5C 301.825,324.211 301.659,327.878 300.5,331.5C 299.676,328.215 299.176,324.882 299,321.5C 297,320.167 295,320.167 293,321.5C 292.502,324.817 292.335,328.15 292.5,331.5C 291.5,331.5 290.5,331.5 289.5,331.5C 289.665,328.15 289.498,324.817 289,321.5C 286.67,319.968 284.67,320.302 283,322.5C 282.821,325.553 282.321,328.553 281.5,331.5C 280.508,327.217 280.174,322.884 280.5,318.5 Z"/></g>
<g><path style="opacity:1" fill="#e7effe" d="M 307.5,318.5 C 313.643,316.99 316.976,319.323 317.5,325.5C 313.774,325.177 310.107,325.511 306.5,326.5C 309.077,330.079 312.077,330.412 315.5,327.5C 316.571,329.325 315.904,330.492 313.5,331C 307.865,332.536 304.865,330.369 304.5,324.5C 304.628,322.045 305.628,320.045 307.5,318.5 Z"/></g>
<g><path style="opacity:1" fill="#e0ebfe" d="M 320.5,318.5 C 323.337,318.729 326.337,318.896 329.5,319C 330,319.5 330.5,320 331,320.5C 331.825,324.211 331.659,327.878 330.5,331.5C 329.676,328.215 329.176,324.882 329,321.5C 327,320.167 325,320.167 323,321.5C 322.824,324.882 322.324,328.215 321.5,331.5C 320.508,327.217 320.174,322.884 320.5,318.5 Z"/></g>
<g><path style="opacity:1" fill="#e9f1fe" d="M 516.5,318.5 C 519.365,318.055 521.865,318.722 524,320.5C 524.308,319.692 524.808,319.025 525.5,318.5C 526.833,322.833 526.833,327.167 525.5,331.5C 524.808,330.975 524.308,330.308 524,329.5C 515.798,333.313 512.465,330.647 514,321.5C 514.698,320.309 515.531,319.309 516.5,318.5 Z"/></g>
<g><path style="opacity:1" fill="#dfe9fe" d="M 577.5,318.5 C 580.337,318.729 583.337,318.896 586.5,319C 587.333,319.833 588.167,320.667 589,321.5C 589.498,324.817 589.665,328.15 589.5,331.5C 588.5,331.5 587.5,331.5 586.5,331.5C 586.665,328.15 586.498,324.817 586,321.5C 584,320.167 582,320.167 580,321.5C 579.824,324.882 579.324,328.215 578.5,331.5C 577.508,327.217 577.174,322.884 577.5,318.5 Z"/></g>
<g><path style="opacity:1" fill="#e5eefe" d="M 751.5,318.5 C 755.329,318.927 758.996,318.927 762.5,318.5C 762.826,322.884 762.492,327.217 761.5,331.5C 760.808,330.975 760.308,330.308 760,329.5C 756.87,332.122 753.703,332.122 750.5,329.5C 748.951,325.579 749.284,321.912 751.5,318.5 Z"/></g>
<g><path style="opacity:1" fill="#d5e3fd" d="M 765.5,318.5 C 768.684,318.833 772.018,319 775.5,319C 776,319.5 776.5,320 777,320.5C 777.825,324.211 777.659,327.878 776.5,331.5C 775.676,328.215 775.176,324.882 775,321.5C 773,320.167 771,320.167 769,321.5C 768.502,324.817 768.335,328.15 768.5,331.5C 767.5,331.5 766.5,331.5 765.5,331.5C 765.5,327.167 765.5,322.833 765.5,318.5 Z"/></g>
<g><path style="opacity:1" fill="#0565f7" d="M 110.5,323.5 C 107.941,323.802 105.607,323.468 103.5,322.5C 105.011,320.559 107.011,320.059 109.5,321C 110.252,321.671 110.586,322.504 110.5,323.5 Z"/></g>
<g><path style="opacity:1" fill="#e1ebfe" d="M 148.5,318.5 C 154.826,316.841 157.826,319.174 157.5,325.5C 154.102,325.18 150.768,325.513 147.5,326.5C 150.077,330.079 153.077,330.412 156.5,327.5C 157.571,329.325 156.904,330.492 154.5,331C 146.83,332.326 143.997,329.159 146,321.5C 146.698,320.309 147.531,319.309 148.5,318.5 Z"/></g>
<g><path style="opacity:1" fill="#1969f7" d="M 148.5,320.5 C 150.527,320.338 152.527,320.505 154.5,321C 154.957,321.414 155.291,321.914 155.5,322.5C 152.833,323.833 150.167,323.833 147.5,322.5C 147.863,321.817 148.196,321.15 148.5,320.5 Z"/></g>
<g><path style="opacity:1" fill="#76a8fa" d="M 173.5,319.5 C 172.791,320.404 171.791,320.737 170.5,320.5C 170.5,323.5 170.5,326.5 170.5,329.5C 169.521,326.375 169.187,323.042 169.5,319.5C 170.833,319.5 172.167,319.5 173.5,319.5 Z"/></g>
<g><path style="opacity:1" fill="#fbfcfe" d="M 180.5,318.5 C 183.044,318.104 185.211,318.771 187,320.5C 187.825,324.211 187.659,327.878 186.5,331.5C 185.676,328.215 185.176,324.882 185,321.5C 184.617,320.944 184.117,320.611 183.5,320.5C 182.5,319.833 181.5,319.167 180.5,318.5 Z"/></g>
<g><path style="opacity:1" fill="#0564f7" d="M 274.5,321.5 C 272.721,323.344 270.388,324.01 267.5,323.5C 267.414,322.504 267.748,321.671 268.5,321C 270.598,320.322 272.598,320.489 274.5,321.5 Z"/></g>
<g><path style="opacity:1" fill="#0364f7" d="M 314.5,323.5 C 311.612,324.01 309.279,323.344 307.5,321.5C 309.402,320.489 311.402,320.322 313.5,321C 314.252,321.671 314.586,322.504 314.5,323.5 Z"/></g>
<g><path style="opacity:1" fill="#dae6fe" d="M 352.5,318.5 C 359.996,317.174 363.496,320.174 363,327.5C 359.688,331.941 355.688,332.608 351,329.5C 348.842,325.461 349.342,321.794 352.5,318.5 Z"/></g>
<g><path style="opacity:1" fill="#1366f7" d="M 353.5,320.5 C 360.472,320.279 362.138,323.113 358.5,329C 356.559,329.743 354.726,329.576 353,328.5C 352.278,325.739 352.445,323.073 353.5,320.5 Z"/></g>
<g><path style="opacity:1" fill="#e8f0fe" d="M 488.5,331.5 C 485.333,331.325 481.999,331.159 478.5,331C 474.59,326.925 474.59,322.925 478.5,319C 480.134,318.506 481.801,318.34 483.5,318.5C 482.5,319.167 481.5,319.833 480.5,320.5C 476.887,322.824 476.553,325.657 479.5,329C 485.742,329.923 487.742,327.423 485.5,321.5C 486.999,319.51 487.832,317.177 488,314.5C 488.499,320.157 488.666,325.824 488.5,331.5 Z"/></g>
<g><path style="opacity:1" fill="#1d69f7" d="M 480.5,320.5 C 482.292,320.366 483.958,320.699 485.5,321.5C 487.742,327.423 485.742,329.923 479.5,329C 476.553,325.657 476.887,322.824 480.5,320.5 Z"/></g>
<g><path style="opacity:1" fill="#1c69f7" d="M 517.5,320.5 C 524.486,320.331 526.153,323.164 522.5,329C 515.416,329.475 513.749,326.642 517.5,320.5 Z"/></g>
<g><path style="opacity:1" fill="#226af7" d="M 752.5,320.5 C 759.61,319.904 761.61,322.737 758.5,329C 751.788,329.776 749.788,326.943 752.5,320.5 Z"/></g>
<g><path style="opacity:1" fill="#e4edfe" d="M 42.5,319.5 C 42.7352,318.903 43.2352,318.57 44,318.5C 45.3943,319.613 46.561,320.947 47.5,322.5C 48.5818,320.216 50.2484,319.05 52.5,319C 51.4147,321.172 50.0814,323.172 48.5,325C 50.597,327 51.597,329.166 51.5,331.5C 49.8333,330.5 48.5,329.167 47.5,327.5C 46.6184,328.76 45.6184,329.926 44.5,331C 43.6683,331.688 43.0016,331.521 42.5,330.5C 43.711,328.578 45.0443,326.745 46.5,325C 45.3034,322.985 43.9701,321.151 42.5,319.5 Z"/></g>
<g><path style="opacity:1" fill="#ebf2fe" d="M 55.5,318.5 C 58.7312,318.815 62.0645,318.982 65.5,319C 69.4101,322.925 69.4101,326.925 65.5,331C 63.1009,331.711 60.7676,331.544 58.5,330.5C 57.5258,332.743 57.1924,335.076 57.5,337.5C 55.5437,331.588 54.8771,325.255 55.5,318.5 Z"/></g>
<g><path style="opacity:1" fill="#1c69f7" d="M 59.5,320.5 C 66.4863,320.331 68.153,323.164 64.5,329C 57.4159,329.475 55.7492,326.642 59.5,320.5 Z"/></g>
<g><path style="opacity:1" fill="#e1ebfe" d="M 73.5,318.5 C 79.6858,317.042 83.0191,319.375 83.5,325.5C 79.774,325.177 76.1073,325.511 72.5,326.5C 75.0767,330.079 78.0767,330.412 81.5,327.5C 82.5937,328.868 82.2603,330.035 80.5,331C 74.3718,333.029 71.0384,330.863 70.5,324.5C 70.6284,322.045 71.6284,320.045 73.5,318.5 Z"/></g>
<g><path style="opacity:1" fill="#0063f7" d="M 74.5,320.5 C 76.9775,320.051 78.9775,320.717 80.5,322.5C 78.1667,323.833 75.8333,323.833 73.5,322.5C 73.8627,321.817 74.1961,321.15 74.5,320.5 Z"/></g>
<g><path style="opacity:1" fill="#e7effe" d="M 133.5,318.5 C 136.685,318.02 139.519,318.686 142,320.5C 142.089,323.022 141.255,323.188 139.5,321C 132.5,320.333 130.833,323 134.5,329C 137.14,329.839 139.473,329.339 141.5,327.5C 142.711,328.274 142.711,329.107 141.5,330C 135.152,333.291 131.486,331.458 130.5,324.5C 130.628,322.045 131.628,320.045 133.5,318.5 Z"/></g>
<g><path style="opacity:1" fill="#e6effe" d="M 193.5,318.5 C 199.686,317.042 203.019,319.375 203.5,325.5C 199.774,325.177 196.107,325.511 192.5,326.5C 195.077,330.079 198.077,330.412 201.5,327.5C 202.594,328.868 202.26,330.035 200.5,331C 194.372,333.029 191.038,330.863 190.5,324.5C 190.628,322.045 191.628,320.045 193.5,318.5 Z"/></g>
<g><path style="opacity:1" fill="#0364f7" d="M 200.5,322.5 C 198.167,323.833 195.833,323.833 193.5,322.5C 194.134,321.053 195.301,320.387 197,320.5C 198.699,320.387 199.866,321.053 200.5,322.5 Z"/></g>
<g><path style="opacity:1" fill="#5c9af9" d="M 215.5,316.5 C 215.5,318.167 215.5,319.833 215.5,321.5C 217.415,321.216 219.081,321.549 220.5,322.5C 218.5,322.5 216.5,322.5 214.5,322.5C 214.205,320.265 214.539,318.265 215.5,316.5 Z"/></g>
<g><path style="opacity:1" fill="#e2ecfe" d="M 223.5,319.5 C 223.735,318.903 224.235,318.57 225,318.5C 226.326,319.799 227.66,321.132 229,322.5C 229.956,321.421 230.789,320.255 231.5,319C 232.332,318.312 232.998,318.479 233.5,319.5C 232.112,321.109 231.112,322.942 230.5,325C 231.62,326.737 232.62,328.571 233.5,330.5C 233.167,330.833 232.833,331.167 232.5,331.5C 231.167,330.167 229.833,328.833 228.5,327.5C 227.585,328.328 226.919,329.328 226.5,330.5C 225.635,331.583 224.635,331.749 223.5,331C 224.833,329 226.167,327 227.5,325C 226.512,322.833 225.179,321 223.5,319.5 Z"/></g>
<g><path style="opacity:1" fill="#e7effe" d="M 238.5,318.5 C 241.685,318.02 244.519,318.686 247,320.5C 247.089,323.022 246.255,323.188 244.5,321C 237.5,320.333 235.833,323 239.5,329C 242.14,329.839 244.473,329.339 246.5,327.5C 247.711,328.274 247.711,329.107 246.5,330C 240.152,333.291 236.486,331.458 235.5,324.5C 235.628,322.045 236.628,320.045 238.5,318.5 Z"/></g>
<g><path style="opacity:1" fill="#e8f0fe" d="M 421.5,318.5 C 424.681,318.742 427.681,318.742 430.5,318.5C 431.833,322.833 431.833,327.167 430.5,331.5C 427.604,331.293 424.604,331.127 421.5,331C 417.535,326.761 417.535,322.595 421.5,318.5 Z"/></g>
<g><path style="opacity:1" fill="#1a69f7" d="M 422.5,320.5 C 429.486,320.331 431.153,323.164 427.5,329C 420.416,329.475 418.749,326.642 422.5,320.5 Z"/></g>
<g><path style="opacity:1" fill="#eff5fe" d="M 462.5,318.5 C 465.617,318.872 468.617,318.872 471.5,318.5C 472.833,322.833 472.833,327.167 471.5,331.5C 470.808,330.975 470.308,330.308 470,329.5C 464.001,333.241 460.501,331.575 459.5,324.5C 459.628,322.045 460.628,320.045 462.5,318.5 Z"/></g>
<g><path style="opacity:1" fill="#1969f7" d="M 463.5,320.5 C 470.486,320.331 472.153,323.164 468.5,329C 461.416,329.475 459.749,326.642 463.5,320.5 Z"/></g>
<g><path style="opacity:1" fill="#5c9af9" d="M 539.5,316.5 C 539.5,318.167 539.5,319.833 539.5,321.5C 541.415,321.216 543.081,321.549 544.5,322.5C 542.5,322.5 540.5,322.5 538.5,322.5C 538.205,320.265 538.539,318.265 539.5,316.5 Z"/></g>
<g><path style="opacity:1" fill="#e6effe" d="M 564.5,318.5 C 570.686,317.042 574.019,319.375 574.5,325.5C 570.774,325.177 567.107,325.511 563.5,326.5C 566.077,330.079 569.077,330.412 572.5,327.5C 573.594,328.868 573.26,330.035 571.5,331C 565.372,333.029 562.038,330.863 561.5,324.5C 561.628,322.045 562.628,320.045 564.5,318.5 Z"/></g>
<g><path style="opacity:1" fill="#0465f7" d="M 571.5,322.5 C 569.167,323.833 566.833,323.833 564.5,322.5C 565.134,321.053 566.301,320.387 568,320.5C 569.699,320.387 570.866,321.053 571.5,322.5 Z"/></g>
<g><path style="opacity:1" fill="#dde8fe" d="M 718.5,318.5 C 722.596,317.715 725.93,318.882 728.5,322C 726.243,322.112 724.076,321.612 722,320.5C 720.893,320.585 719.893,320.919 719,321.5C 717.052,329.395 719.552,331.395 726.5,327.5C 727.594,328.868 727.26,330.035 725.5,331C 719.372,333.029 716.038,330.863 715.5,324.5C 715.628,322.045 716.628,320.045 718.5,318.5 Z"/></g>
<g><path style="opacity:1" fill="#e4eefe" d="M 791.5,313.5 C 792.816,316.087 793.483,319.087 793.5,322.5C 793.167,325.5 792.833,328.5 792.5,331.5C 789.604,331.293 786.604,331.127 783.5,331C 779.59,326.925 779.59,322.925 783.5,319C 786.099,318.231 788.599,318.398 791,319.5C 791.495,317.527 791.662,315.527 791.5,313.5 Z"/></g>
<g><path style="opacity:1" fill="#1868f7" d="M 784.5,320.5 C 791.486,320.331 793.153,323.164 789.5,329C 785.229,330.513 782.895,329.013 782.5,324.5C 782.752,322.927 783.418,321.594 784.5,320.5 Z"/></g>
<g><path style="opacity:1" fill="#77a9fa" d="M 806.5,316.5 C 806.5,318.167 806.5,319.833 806.5,321.5C 808.735,321.205 810.735,321.539 812.5,322.5C 810.167,322.5 807.833,322.5 805.5,322.5C 805.205,320.265 805.539,318.265 806.5,316.5 Z"/></g>
<g><path style="opacity:1" fill="#e8f0fe" d="M 818.5,318.5 C 821.681,318.742 824.681,318.742 827.5,318.5C 828.833,322.833 828.833,327.167 827.5,331.5C 824.604,331.293 821.604,331.127 818.5,331C 814.535,326.761 814.535,322.595 818.5,318.5 Z"/></g>
<g><path style="opacity:1" fill="#1b69f7" d="M 819.5,320.5 C 826.486,320.331 828.153,323.164 824.5,329C 817.416,329.475 815.749,326.642 819.5,320.5 Z"/></g>
<g><path style="opacity:1" fill="#7aacfa" d="M 103.5,322.5 C 105.607,323.468 107.941,323.802 110.5,323.5C 107.976,324.8 105.309,324.8 102.5,323.5C 102.624,322.893 102.957,322.56 103.5,322.5 Z"/></g>
<g><path style="opacity:1" fill="#89b6fb" d="M 193.5,322.5 C 195.833,323.833 198.167,323.833 200.5,322.5C 201.043,322.56 201.376,322.893 201.5,323.5C 198.5,324.833 195.5,324.833 192.5,323.5C 192.624,322.893 192.957,322.56 193.5,322.5 Z"/></g>
<g><path style="opacity:1" fill="#6ca1fa" d="M 220.5,322.5 C 221.043,322.56 221.376,322.893 221.5,323.5C 219.604,324.466 217.604,324.799 215.5,324.5C 215.5,326.167 215.5,327.833 215.5,329.5C 214.539,327.735 214.205,325.735 214.5,323.5C 216.735,323.795 218.735,323.461 220.5,322.5 Z"/></g>
<g><path style="opacity:1" fill="#7eaffb" d="M 274.5,321.5 C 275.404,322.209 275.737,323.209 275.5,324.5C 272.615,324.806 269.948,324.473 267.5,323.5C 270.388,324.01 272.721,323.344 274.5,321.5 Z"/></g>
<g><path style="opacity:1" fill="#7eaffa" d="M 307.5,321.5 C 309.279,323.344 311.612,324.01 314.5,323.5C 312.052,324.473 309.385,324.806 306.5,324.5C 306.263,323.209 306.596,322.209 307.5,321.5 Z"/></g>
<g><path style="opacity:1" fill="#6ca1fa" d="M 544.5,322.5 C 545.043,322.56 545.376,322.893 545.5,323.5C 543.604,324.466 541.604,324.799 539.5,324.5C 539.5,326.167 539.5,327.833 539.5,329.5C 538.539,327.735 538.205,325.735 538.5,323.5C 540.735,323.795 542.735,323.461 544.5,322.5 Z"/></g>
<g><path style="opacity:1" fill="#89b6fb" d="M 564.5,322.5 C 566.833,323.833 569.167,323.833 571.5,322.5C 572.043,322.56 572.376,322.893 572.5,323.5C 569.5,324.833 566.5,324.833 563.5,323.5C 563.624,322.893 563.957,322.56 564.5,322.5 Z"/></g>
<g><path style="opacity:1" fill="#5392f9" d="M 112.5,321.5 C 113.451,322.919 113.784,324.585 113.5,326.5C 109.958,326.187 106.625,326.521 103.5,327.5C 102.957,327.44 102.624,327.107 102.5,326.5C 105.768,325.513 109.102,325.18 112.5,325.5C 112.5,324.167 112.5,322.833 112.5,321.5 Z"/></g>
<g><path style="opacity:1" fill="#dee9fe" d="M 602.5,318.5 C 605.365,318.055 607.865,318.722 610,320.5C 610.688,321.332 610.521,321.998 609.5,322.5C 607.827,320.914 605.827,320.247 603.5,320.5C 603.281,321.675 603.614,322.675 604.5,323.5C 607.474,323.854 609.474,325.354 610.5,328C 609.925,330.627 608.259,331.794 605.5,331.5C 603.626,331.61 602.126,330.944 601,329.5C 600.312,328.668 600.479,328.002 601.5,327.5C 603.51,329.171 605.843,329.838 608.5,329.5C 608.5,328.5 608.5,327.5 608.5,326.5C 605.626,326.377 603.126,325.377 601,323.5C 600.387,321.505 600.887,319.838 602.5,318.5 Z"/></g>
<g><path style="opacity:1" fill="#e2ecfe" d="M 833.5,318.5 C 836.119,318.232 838.619,318.565 841,319.5C 841.749,320.635 841.583,321.635 840.5,322.5C 838.821,320.896 836.821,320.229 834.5,320.5C 834.281,321.675 834.614,322.675 835.5,323.5C 837.167,324.167 838.833,324.833 840.5,325.5C 842.489,329.471 841.322,331.471 837,331.5C 834.966,331.646 833.299,330.98 832,329.5C 831.409,328.517 831.743,327.85 833,327.5C 834.921,329.003 837.088,329.669 839.5,329.5C 839.5,328.5 839.5,327.5 839.5,326.5C 833.55,326.564 831.55,323.898 833.5,318.5 Z"/></g>
<g><path style="opacity:1" fill="#e2ecfe" d="M 843.5,319.5 C 844.386,318.224 845.386,318.224 846.5,319.5C 847.667,322.5 848.833,325.5 850,328.5C 851.265,325.539 852.431,322.539 853.5,319.5C 854.365,318.417 855.365,318.251 856.5,319C 853.963,325.474 850.963,331.641 847.5,337.5C 847.167,337.167 846.833,336.833 846.5,336.5C 847.265,334.705 847.932,332.872 848.5,331C 847.101,326.942 845.434,323.108 843.5,319.5 Z"/></g>
<g><path style="opacity:1" fill="#e6eefe" d="M 619.5,318.5 C 620.497,318.47 621.164,318.97 621.5,320C 622.083,322.918 622.916,325.751 624,328.5C 625.15,325.232 625.984,321.899 626.5,318.5C 627.822,318.33 628.989,318.663 630,319.5C 631.667,330.167 633.333,330.167 635,319.5C 635.893,318.289 636.726,318.289 637.5,319.5C 636.033,323.069 634.866,326.736 634,330.5C 633.107,331.711 632.274,331.711 631.5,330.5C 630.431,327.461 629.265,324.461 628,321.5C 626.85,324.768 626.016,328.101 625.5,331.5C 624.5,331.5 623.5,331.5 622.5,331.5C 621.293,327.214 620.293,322.88 619.5,318.5 Z"/></g>
<g><path style="opacity:1" fill="#edf3fe" d="M 396.5,318.5 C 399.365,318.055 401.865,318.722 404,320.5C 404.308,319.692 404.808,319.025 405.5,318.5C 406.833,322.833 406.833,327.167 405.5,331.5C 404.676,329.252 403.676,329.086 402.5,331C 395.167,331.997 392.334,328.83 394,321.5C 394.698,320.309 395.531,319.309 396.5,318.5 Z"/></g>
<g><path style="opacity:1" fill="#1368f7" d="M 397.5,320.5 C 404.486,320.331 406.153,323.164 402.5,329C 398.229,330.513 395.895,329.013 395.5,324.5C 395.752,322.927 396.418,321.594 397.5,320.5 Z"/></g>
<g><path style="opacity:1" fill="#b0cdfc" d="M 135.5,354.5 C 135.44,355.043 135.107,355.376 134.5,355.5C 133.702,353.922 133.202,352.256 133,350.5C 132.501,356.157 132.334,361.824 132.5,367.5C 131.51,361.69 131.177,355.69 131.5,349.5C 132.5,349.5 133.5,349.5 134.5,349.5C 134.216,351.415 134.549,353.081 135.5,354.5 Z"/></g>
<g><path style="opacity:1" fill="#e7eefe" d="M 135.5,354.5 C 138.365,354.055 140.865,354.722 143,356.5C 143.825,360.211 143.659,363.878 142.5,367.5C 141.676,364.215 141.176,360.882 141,357.5C 139,356.167 137,356.167 135,357.5C 135.083,361.311 134.25,364.645 132.5,367.5C 132.334,361.824 132.501,356.157 133,350.5C 133.202,352.256 133.702,353.922 134.5,355.5C 135.107,355.376 135.44,355.043 135.5,354.5 Z"/></g>
<g><path style="opacity:1" fill="#ebf1fe" d="M 128.5,354.5 C 127.791,355.404 126.791,355.737 125.5,355.5C 125.187,359.042 125.521,362.375 126.5,365.5C 129.988,365.899 130.154,366.566 127,367.5C 125.893,367.415 124.893,367.081 124,366.5C 123.985,362.585 123.152,358.918 121.5,355.5C 122.752,353.999 123.752,352.332 124.5,350.5C 125.429,351.689 125.762,353.022 125.5,354.5C 126.5,354.5 127.5,354.5 128.5,354.5 Z"/></g>
<g><path style="opacity:1" fill="#9cc2fb" d="M 243.5,351.5 C 241.554,356.396 240.887,361.729 241.5,367.5C 240.511,362.025 240.178,356.358 240.5,350.5C 241.791,350.263 242.791,350.596 243.5,351.5 Z"/></g>
<g><path style="opacity:1" fill="#659ffa" d="M 255.5,351.5 C 256.209,350.596 257.209,350.263 258.5,350.5C 258.822,356.358 258.489,362.025 257.5,367.5C 258.113,361.729 257.446,356.396 255.5,351.5 Z"/></g>
<g><path style="opacity:1" fill="#dde8fe" d="M 266.5,350.5 C 267.675,350.281 268.675,350.614 269.5,351.5C 271.211,356.801 273.211,361.968 275.5,367C 274.552,367.483 273.552,367.649 272.5,367.5C 272.763,364.266 271.263,362.932 268,363.5C 264.737,362.932 263.237,364.266 263.5,367.5C 262.325,367.719 261.325,367.386 260.5,366.5C 262.703,361.221 264.703,355.887 266.5,350.5 Z"/></g>
<g><path style="opacity:1" fill="#e6effe" d="M 281.5,356.5 C 281.217,355.711 280.717,355.044 280,354.5C 279.501,358.821 279.334,363.154 279.5,367.5C 277.55,362.265 276.883,356.598 277.5,350.5C 278.675,350.281 279.675,350.614 280.5,351.5C 283,355.167 285.5,358.833 288,362.5C 288.173,358.459 288.673,354.459 289.5,350.5C 290.833,356.167 290.833,361.833 289.5,367.5C 286.102,364.373 283.435,360.707 281.5,356.5 Z"/></g>
<g><path style="opacity:1" fill="#e9f0fe" d="M 293.5,350.5 C 297.555,350.176 301.555,350.509 305.5,351.5C 303.955,352.452 302.288,352.785 300.5,352.5C 299.833,372.5 299.167,372.5 298.5,352.5C 296.219,352.923 294.552,352.256 293.5,350.5 Z"/></g>
<g><path style="opacity:1" fill="#f2f7fe" d="M 307.5,350.5 C 308.814,352.915 309.481,355.748 309.5,359C 309.167,361.833 308.833,364.667 308.5,367.5C 307.505,361.872 307.171,356.206 307.5,350.5 Z"/></g>
<g><path style="opacity:1" fill="#e5edfe" d="M 36.5,350.5 C 37.5,350.5 38.5,350.5 39.5,350.5C 40.66,355.814 42.3266,360.98 44.5,366C 44.1667,366.5 43.8333,367 43.5,367.5C 41.163,364.065 37.8297,362.732 33.5,363.5C 33.735,366.812 32.735,367.645 30.5,366C 32.41,360.765 34.41,355.599 36.5,350.5 Z"/></g>
<g><path style="opacity:1" fill="#e2ecfe" d="M 105.5,354.5 C 108.365,354.055 110.865,354.722 113,356.5C 113.688,357.332 113.521,357.998 112.5,358.5C 110.827,356.914 108.827,356.247 106.5,356.5C 106.809,359.346 108.475,360.846 111.5,361C 114.498,364.818 113.498,366.984 108.5,367.5C 106.626,367.61 105.126,366.944 104,365.5C 103.312,364.668 103.479,364.002 104.5,363.5C 106.51,365.171 108.843,365.838 111.5,365.5C 111.5,364.5 111.5,363.5 111.5,362.5C 108.626,362.377 106.126,361.377 104,359.5C 103.387,357.505 103.887,355.838 105.5,354.5 Z"/></g>
<g><path style="opacity:1" fill="#ebf2fe" d="M 147.5,354.5 C 149.458,354.908 151.458,355.241 153.5,355.5C 152.372,356.262 151.205,356.929 150,357.5C 149.824,360.882 149.324,364.215 148.5,367.5C 147.508,363.217 147.174,358.884 147.5,354.5 Z"/></g>
<g><path style="opacity:1" fill="#e4edfe" d="M 188.5,354.5 C 192.329,354.927 195.996,354.927 199.5,354.5C 199.666,359.511 199.499,364.511 199,369.5C 197.982,372.683 195.815,374.016 192.5,373.5C 189.447,374.048 187.447,372.882 186.5,370C 188.757,369.888 190.924,370.388 193,371.5C 196.164,371.233 197.164,369.567 196,366.5C 189.989,368.914 186.822,366.914 186.5,360.5C 186.363,358.159 187.03,356.159 188.5,354.5 Z"/></g>
<g><path style="opacity:1" fill="#e2ecfe" d="M 64.5,354.5 C 67.6852,354.02 70.5185,354.686 73,356.5C 73.0885,359.022 72.2552,359.188 70.5,357C 63.5,356.333 61.8333,359 65.5,365C 68.1396,365.839 70.4729,365.339 72.5,363.5C 73.7112,364.274 73.7112,365.107 72.5,366C 64.2463,369.081 60.7463,366.248 62,357.5C 62.6979,356.309 63.5313,355.309 64.5,354.5 Z"/></g>
<g><path style="opacity:1" fill="#dee9fe" d="M 78.5,354.5 C 84.8024,352.963 88.1358,355.296 88.5,361.5C 85.1667,361.5 81.8333,361.5 78.5,361.5C 78.33,362.822 78.6634,363.989 79.5,365C 82.7068,365.415 85.7068,365.082 88.5,364C 85.9086,367.492 82.5753,368.326 78.5,366.5C 74.619,362.542 74.619,358.542 78.5,354.5 Z"/></g>
<g><path style="opacity:1" fill="#e7effe" d="M 158.5,354.5 C 168.766,354.262 171.099,358.428 165.5,367C 155.102,367.471 152.768,363.305 158.5,354.5 Z"/></g>
<g><path style="opacity:1" fill="#226df7" d="M 267.5,354.5 C 268.864,356.22 269.864,358.22 270.5,360.5C 268.955,361.452 267.288,361.785 265.5,361.5C 265.767,359.035 266.434,356.701 267.5,354.5 Z"/></g>
<g><path style="opacity:1" fill="#7daffb" d="M 281.5,356.5 C 280.833,360.167 280.167,363.833 279.5,367.5C 279.334,363.154 279.501,358.821 280,354.5C 280.717,355.044 281.217,355.711 281.5,356.5 Z"/></g>
<g><path style="opacity:1" fill="#1b6af7" d="M 39.5,359.5 C 39.38,360.586 38.7133,361.253 37.5,361.5C 36.5836,361.457 35.9169,361.124 35.5,360.5C 36.2922,354.636 37.6256,354.303 39.5,359.5 Z"/></g>
<g><path style="opacity:1" fill="#dde9fe" d="M 49.5,354.5 C 53.5963,353.715 56.9296,354.882 59.5,358C 57.2427,358.112 55.076,357.612 53,356.5C 51.8926,356.585 50.8926,356.919 50,357.5C 48.0523,365.395 50.5523,367.395 57.5,363.5C 58.5937,364.868 58.2603,366.035 56.5,367C 50.6481,369.04 47.3148,367.04 46.5,361C 46.8402,358.489 47.8402,356.322 49.5,354.5 Z"/></g>
<g><path style="opacity:1" fill="#206af7" d="M 79.5,356.5 C 81.5273,356.338 83.5273,356.505 85.5,357C 85.9574,357.414 86.2907,357.914 86.5,358.5C 83.8333,359.833 81.1667,359.833 78.5,358.5C 78.8627,357.817 79.1961,357.15 79.5,356.5 Z"/></g>
<g><path style="opacity:1" fill="#e1ebfe" d="M 92.5,354.5 C 95.1194,354.232 97.6194,354.565 100,355.5C 100.749,356.635 100.583,357.635 99.5,358.5C 97.8211,356.896 95.8211,356.229 93.5,356.5C 93.281,357.675 93.6143,358.675 94.5,359.5C 99.5723,359.398 101.406,361.731 100,366.5C 96.7479,368.097 93.9146,367.597 91.5,365C 91.8333,364.5 92.1667,364 92.5,363.5C 94.1789,365.104 96.1789,365.771 98.5,365.5C 98.5,364.5 98.5,363.5 98.5,362.5C 92.5503,362.564 90.5503,359.898 92.5,354.5 Z"/></g>
<g><path style="opacity:1" fill="#5e98f9" d="M 128.5,354.5 C 129.043,354.56 129.376,354.893 129.5,355.5C 128.675,356.386 127.675,356.719 126.5,356.5C 126.5,359.5 126.5,362.5 126.5,365.5C 125.521,362.375 125.187,359.042 125.5,355.5C 126.791,355.737 127.791,355.404 128.5,354.5 Z"/></g>
<g><path style="opacity:1" fill="#1368f7" d="M 159.5,356.5 C 166.444,356.272 168.11,359.106 164.5,365C 157.416,365.475 155.749,362.642 159.5,356.5 Z"/></g>
<g><path style="opacity:1" fill="#216af7" d="M 189.5,356.5 C 196.61,355.904 198.61,358.737 195.5,365C 188.801,365.809 186.801,362.975 189.5,356.5 Z"/></g>
<g><path style="opacity:1" fill="#d8e5fe" d="M 202.5,349.5 C 203.5,349.5 204.5,349.5 205.5,349.5C 205.338,351.527 205.505,353.527 206,355.5C 212.258,353.086 215.091,355.253 214.5,362C 214.167,363.833 213.833,365.667 213.5,367.5C 212.676,364.215 212.176,360.882 212,357.5C 210.274,356.424 208.441,356.257 206.5,357C 205.544,360.394 205.211,363.894 205.5,367.5C 204.5,367.5 203.5,367.5 202.5,367.5C 202.5,361.5 202.5,355.5 202.5,349.5 Z"/></g>
<g><path style="opacity:1" fill="#e3ecfe" d="M 313.5,350.5 C 314.496,350.414 315.329,350.748 316,351.5C 318.003,358.027 320.169,358.027 322.5,351.5C 323.5,350.167 324.5,350.167 325.5,351.5C 323.833,354.167 322.167,356.833 320.5,359.5C 322.043,362.086 323.709,364.586 325.5,367C 324.365,367.749 323.365,367.583 322.5,366.5C 321.333,364.833 320.167,363.167 319,361.5C 317.708,363.249 316.542,365.082 315.5,367C 314.668,367.688 314.002,367.521 313.5,366.5C 315.051,364.116 316.385,361.616 317.5,359C 315.762,356.357 314.428,353.523 313.5,350.5 Z"/></g>
<g><path style="opacity:1" fill="#dee9fe" d="M 229.5,350.5 C 230.822,350.33 231.989,350.663 233,351.5C 234.638,356.748 236.471,361.915 238.5,367C 237.552,367.483 236.552,367.649 235.5,367.5C 235.763,364.266 234.263,362.932 231,363.5C 227.737,362.932 226.237,364.266 226.5,367.5C 225.448,367.649 224.448,367.483 223.5,367C 225.729,361.585 227.729,356.085 229.5,350.5 Z"/></g>
<g><path style="opacity:1" fill="#226cf7" d="M 230.5,354.5 C 232.293,356.426 233.293,358.759 233.5,361.5C 231.712,361.785 230.045,361.452 228.5,360.5C 229.372,358.55 230.039,356.55 230.5,354.5 Z"/></g>
<g><path style="opacity:1" fill="#e2ecfe" d="M 243.5,351.5 C 245.502,355.505 247.502,359.505 249.5,363.5C 251.513,359.473 253.513,355.473 255.5,351.5C 257.446,356.396 258.113,361.729 257.5,367.5C 255.75,364.645 254.917,361.311 255,357.5C 253.435,360.962 251.602,364.295 249.5,367.5C 247.413,364.327 245.579,360.994 244,357.5C 244.083,361.311 243.25,364.645 241.5,367.5C 240.887,361.729 241.554,356.396 243.5,351.5 Z"/></g>
<g><path style="opacity:1" fill="#7cadfa" d="M 39.5,359.5 C 40.404,360.209 40.7373,361.209 40.5,362.5C 38.396,362.799 36.396,362.466 34.5,361.5C 34.6236,360.893 34.9569,360.56 35.5,360.5C 35.9169,361.124 36.5836,361.457 37.5,361.5C 38.7133,361.253 39.38,360.586 39.5,359.5 Z"/></g>
<g><path style="opacity:1" fill="#d8e5fd" d="M 171.5,354.5 C 173.237,357.008 174.07,360.008 174,363.5C 175.67,365.698 177.67,366.032 180,364.5C 180.498,361.183 180.665,357.85 180.5,354.5C 181.5,354.5 182.5,354.5 183.5,354.5C 183.5,358.833 183.5,363.167 183.5,367.5C 180.068,367.41 176.568,367.076 173,366.5C 171.646,362.637 171.146,358.637 171.5,354.5 Z"/></g>
</svg>
