<svg width="216" height="26" viewBox="0 0 216 26" fill="none" xmlns="http://www.w3.org/2000/svg">
<path d="M11.55 4.79L8.47 15.78C8.44667 15.85 8.45833 15.92 8.505 15.99C8.55167 16.06 8.61 16.095 8.68 16.095H14.49C14.56 16.095 14.6183 16.06 14.665 15.99C14.7117 15.92 14.7233 15.85 14.7 15.78L11.62 4.79C11.62 4.76667 11.6083 4.755 11.585 4.755C11.5617 4.755 11.55 4.76667 11.55 4.79ZM2.485 26C1.995 26 1.61 25.8017 1.33 25.405C1.05 25.0083 0.991667 24.5767 1.155 24.11L8.4 2.34C8.61 1.78 8.94833 1.325 9.415 0.974999C9.905 0.624999 10.4417 0.449999 11.025 0.449999H12.285C12.8917 0.449999 13.4283 0.624999 13.895 0.974999C14.385 1.325 14.7233 1.78 14.91 2.34L22.155 24.11C22.3183 24.5767 22.26 25.0083 21.98 25.405C21.7 25.8017 21.315 26 20.825 26H19.565C19.005 26 18.48 25.825 17.99 25.475C17.5233 25.1017 17.2083 24.635 17.045 24.075L15.925 20.12C15.9017 19.9333 15.7733 19.84 15.54 19.84H7.63C7.42 19.84 7.29167 19.9333 7.245 20.12L6.125 24.075C5.985 24.635 5.67 25.1017 5.18 25.475C4.71333 25.825 4.18833 26 3.605 26H2.485ZM37.5725 26C37.0358 26 36.5692 25.8017 36.1725 25.405C35.7758 25.0083 35.5775 24.5417 35.5775 24.005V2.445C35.5775 1.90833 35.7758 1.44167 36.1725 1.045C36.5692 0.648332 37.0358 0.449999 37.5725 0.449999H38.4475C39.0542 0.449999 39.6142 0.613333 40.1275 0.939999C40.6408 1.26667 41.0142 1.69833 41.2475 2.235L47.3725 15.465C47.3725 15.4883 47.3842 15.5 47.4075 15.5C47.4308 15.5 47.4425 15.4883 47.4425 15.465L53.5675 2.235C53.8008 1.69833 54.1742 1.26667 54.6875 0.939999C55.2008 0.613333 55.7608 0.449999 56.3675 0.449999H57.3825C57.9192 0.449999 58.3858 0.648332 58.7825 1.045C59.1792 1.44167 59.3775 1.90833 59.3775 2.445V24.005C59.3775 24.5417 59.1792 25.0083 58.7825 25.405C58.3858 25.8017 57.9192 26 57.3825 26H56.6125C56.0758 26 55.6092 25.8017 55.2125 25.405C54.8158 25.0083 54.6175 24.5417 54.6175 24.005V8.78C54.6175 8.75667 54.6058 8.745 54.5825 8.745C54.5592 8.745 54.5475 8.75667 54.5475 8.78L50.3475 17.775C50.0908 18.3117 49.6942 18.755 49.1575 19.105C48.6442 19.4317 48.0958 19.595 47.5125 19.595H47.3025C46.7192 19.595 46.1592 19.4317 45.6225 19.105C45.1092 18.755 44.7242 18.3117 44.4675 17.775L40.2675 8.78C40.2675 8.75667 40.2558 8.745 40.2325 8.745C40.2092 8.745 40.1975 8.75667 40.1975 8.78V24.005C40.1975 24.5417 39.9992 25.0083 39.6025 25.405C39.2058 25.8017 38.7392 26 38.2025 26H37.5725ZM83.635 4.79L80.555 15.78C80.5316 15.85 80.5433 15.92 80.59 15.99C80.6366 16.06 80.695 16.095 80.765 16.095H86.575C86.645 16.095 86.7033 16.06 86.75 15.99C86.7966 15.92 86.8083 15.85 86.785 15.78L83.705 4.79C83.705 4.76667 83.6933 4.755 83.67 4.755C83.6466 4.755 83.635 4.76667 83.635 4.79ZM74.57 26C74.08 26 73.695 25.8017 73.415 25.405C73.135 25.0083 73.0766 24.5767 73.24 24.11L80.485 2.34C80.695 1.78 81.0333 1.325 81.5 0.974999C81.99 0.624999 82.5266 0.449999 83.11 0.449999H84.37C84.9766 0.449999 85.5133 0.624999 85.98 0.974999C86.47 1.325 86.8083 1.78 86.995 2.34L94.24 24.11C94.4033 24.5767 94.345 25.0083 94.065 25.405C93.785 25.8017 93.4 26 92.91 26H91.65C91.09 26 90.565 25.825 90.075 25.475C89.6083 25.1017 89.2933 24.635 89.13 24.075L88.01 20.12C87.9866 19.9333 87.8583 19.84 87.625 19.84H79.715C79.505 19.84 79.3766 19.9333 79.33 20.12L78.21 24.075C78.07 24.635 77.755 25.1017 77.265 25.475C76.7983 25.825 76.2733 26 75.69 26H74.57ZM109.622 26C109.086 26 108.619 25.8017 108.222 25.405C107.849 25.0083 107.662 24.5417 107.662 24.005V2.445C107.662 1.90833 107.849 1.44167 108.222 1.045C108.619 0.648332 109.086 0.449999 109.622 0.449999H110.392C111.722 0.449999 112.702 1.03333 113.332 2.2L121.977 17.81C121.977 17.8333 121.989 17.845 122.012 17.845C122.036 17.845 122.047 17.8333 122.047 17.81V2.445C122.047 1.90833 122.246 1.44167 122.642 1.045C123.039 0.648332 123.506 0.449999 124.042 0.449999H124.812C125.349 0.449999 125.804 0.648332 126.177 1.045C126.574 1.44167 126.772 1.90833 126.772 2.445V24.005C126.772 24.5417 126.574 25.0083 126.177 25.405C125.804 25.8017 125.349 26 124.812 26H124.042C122.712 26 121.732 25.4167 121.102 24.25L112.457 8.64C112.457 8.61667 112.446 8.605 112.422 8.605C112.399 8.605 112.387 8.61667 112.387 8.64V24.005C112.387 24.5417 112.189 25.0083 111.792 25.405C111.396 25.8017 110.929 26 110.392 26H109.622Z" fill="#535353"/>
<path d="M143.372 4.51C142.836 4.51 142.369 4.32333 141.972 3.95C141.576 3.55333 141.377 3.08667 141.377 2.55V2.445C141.377 1.90833 141.576 1.44167 141.972 1.045C142.369 0.648332 142.836 0.449999 143.372 0.449999H158.282C158.819 0.449999 159.286 0.648332 159.682 1.045C160.079 1.44167 160.277 1.90833 160.277 2.445V2.55C160.277 3.08667 160.079 3.55333 159.682 3.95C159.286 4.32333 158.819 4.51 158.282 4.51H153.592C153.406 4.51 153.312 4.615 153.312 4.825V24.005C153.312 24.5417 153.114 25.0083 152.717 25.405C152.321 25.8017 151.854 26 151.317 26H150.337C149.801 26 149.334 25.8017 148.937 25.405C148.541 25.0083 148.342 24.5417 148.342 24.005V4.825C148.342 4.615 148.249 4.51 148.062 4.51H143.372ZM177.589 26C177.052 26 176.586 25.8017 176.189 25.405C175.792 25.0083 175.594 24.5417 175.594 24.005V2.445C175.594 1.90833 175.792 1.44167 176.189 1.045C176.586 0.648332 177.052 0.449999 177.589 0.449999H178.989C179.526 0.449999 179.992 0.648332 180.389 1.045C180.786 1.44167 180.984 1.90833 180.984 2.445V24.005C180.984 24.5417 180.786 25.0083 180.389 25.405C179.992 25.8017 179.526 26 178.989 26H177.589ZM197.6 26C197.157 26 196.818 25.8133 196.585 25.44C196.352 25.0433 196.34 24.6467 196.55 24.25L202.395 13.33C202.488 13.19 202.488 13.015 202.395 12.805L196.725 2.2C196.515 1.80333 196.527 1.41833 196.76 1.045C196.993 0.648332 197.332 0.449999 197.775 0.449999H199.28C199.887 0.449999 200.447 0.613333 200.96 0.939999C201.473 1.26667 201.858 1.69833 202.115 2.235L205.79 9.97C205.79 9.99333 205.802 10.005 205.825 10.005C205.848 10.005 205.86 9.99333 205.86 9.97L209.535 2.235C209.792 1.69833 210.177 1.26667 210.69 0.939999C211.203 0.613333 211.763 0.449999 212.37 0.449999H213.735C214.202 0.449999 214.54 0.648332 214.75 1.045C214.983 1.41833 214.995 1.80333 214.785 2.2L209.115 12.805C209.045 12.9683 209.045 13.1433 209.115 13.33L214.96 24.25C215.17 24.6467 215.158 25.0433 214.925 25.44C214.715 25.8133 214.377 26 213.91 26H212.3C211.693 26 211.122 25.8367 210.585 25.51C210.072 25.1833 209.698 24.7517 209.465 24.215L205.72 16.13C205.72 16.1067 205.708 16.095 205.685 16.095C205.662 16.095 205.65 16.1067 205.65 16.13L201.905 24.215C201.672 24.7517 201.287 25.1833 200.75 25.51C200.237 25.8367 199.677 26 199.07 26H197.6Z" fill="#0063F7"/>
</svg>
