<svg width="171" height="164" viewBox="0 0 171 164" fill="none" xmlns="http://www.w3.org/2000/svg">
<path d="M174.731 -48.4844L146.608 -82L100.182 -43.0442L114.244 -26.2864L99.5828 -13.9845L85.5213 -30.7423L-3.05176e-05 41.0186L28.1229 74.5342C41.6177 63.2107 63.0499 66.5357 75.9931 81.9607C88.9362 97.3857 88.489 119.07 74.9942 130.393L103.117 163.909L188.638 92.1479L174.577 75.3901L189.238 63.0882L203.299 79.846L249.725 40.8902L221.602 7.37462C208.107 18.6981 186.675 15.3731 173.732 -0.0518801C160.789 -15.4769 161.236 -37.1609 174.731 -48.4844ZM173.614 44.4688L158.953 56.7706L144.892 40.0128L159.553 27.711L173.614 44.4688ZM143.929 9.09085L129.268 21.3927L115.206 4.63493L129.867 -7.66693L143.929 9.09085Z" fill="#0063F7"/>
</svg>
