<svg width="39" height="40" viewBox="0 0 39 40" fill="none" xmlns="http://www.w3.org/2000/svg">
<path fill-rule="evenodd" clip-rule="evenodd" d="M14.0156 7.5V3.75H24.9844V7.5H14.0156ZM10.3594 7.5V2.5C10.3594 1.83696 10.6162 1.20107 11.0733 0.732233C11.5304 0.263392 12.1504 0 12.7969 0L26.2031 0C26.8496 0 27.4696 0.263392 27.9267 0.732233C28.3838 1.20107 28.6406 1.83696 28.6406 2.5V7.5H34.7344C35.2192 7.5 35.6842 7.69754 36.0271 8.04917C36.3699 8.40081 36.5625 8.87772 36.5625 9.375C36.5625 9.87228 36.3699 10.3492 36.0271 10.7008C35.6842 11.0525 35.2192 11.25 34.7344 11.25H33.8447L32.0336 35.3825C31.9397 36.6386 31.3868 37.8121 30.4857 38.6682C29.5846 39.5243 28.4016 39.9999 27.1733 40H11.8268C10.5984 39.9999 9.41543 39.5243 8.5143 38.6682C7.61317 37.8121 7.06034 36.6386 6.96637 35.3825L5.15531 11.25H4.26562C3.78078 11.25 3.31579 11.0525 2.97295 10.7008C2.63011 10.3492 2.4375 9.87228 2.4375 9.375C2.4375 8.87772 2.63011 8.40081 2.97295 8.04917C3.31579 7.69754 3.78078 7.5 4.26562 7.5H10.3594ZM8.82375 11.25H30.1763L28.3871 35.095C28.3638 35.4089 28.2258 35.7023 28.0008 35.9164C27.7757 36.1305 27.4802 36.2497 27.1733 36.25H11.8268C11.5198 36.2497 11.2243 36.1305 10.9992 35.9164C10.7742 35.7023 10.6362 35.4089 10.6129 35.095L8.82375 11.25Z" fill="white"/>
</svg>
