<svg width="25" height="24" viewBox="0 0 25 24" fill="none" xmlns="http://www.w3.org/2000/svg">
<path d="M15.8835 16.11L17.6335 14.43C17.8692 14.2065 18.1674 14.0536 18.4919 13.9897C18.8164 13.9258 19.1533 13.9537 19.4616 14.07L21.5944 14.8875C21.906 15.0089 22.1731 15.2161 22.3622 15.4831C22.5513 15.75 22.6538 16.0647 22.6569 16.3875V20.1375C22.6551 20.3571 22.607 20.574 22.5155 20.7753C22.4241 20.9766 22.2911 21.158 22.1247 21.3087C21.9583 21.4593 21.7618 21.5761 21.5472 21.6519C21.3325 21.7278 21.1041 21.7611 20.8756 21.75C5.93033 20.8575 2.9147 8.7075 2.34439 4.0575C2.31791 3.82915 2.3421 3.59801 2.41536 3.37928C2.48862 3.16055 2.6093 2.95919 2.76944 2.78845C2.92959 2.61771 3.12557 2.48145 3.34451 2.38865C3.56345 2.29584 3.80037 2.24859 4.0397 2.25H7.81314C8.14986 2.25096 8.47859 2.3486 8.75704 2.53037C9.03549 2.71214 9.25093 2.96973 9.37564 3.27L10.2272 5.3175C10.3524 5.6123 10.3843 5.93598 10.319 6.24811C10.2537 6.56024 10.0941 6.84697 9.86001 7.0725L8.11001 8.7525C8.11001 8.7525 9.11783 15.3 15.8835 16.11Z" fill="black"/>
</svg>
