<svg width="25" height="24" viewBox="0 0 25 24" fill="none" xmlns="http://www.w3.org/2000/svg">
<path d="M12.5007 2C6.75065 2 2.08398 6.48 2.08398 12C2.08398 17.52 6.75065 22 12.5007 22C18.2507 22 22.9173 17.52 22.9173 12C22.9173 6.48 18.2507 2 12.5007 2ZM17.334 8.8C17.1777 10.38 16.5007 14.22 16.1569 15.99C16.0111 16.74 15.7194 16.99 15.4486 17.02C14.8444 17.07 14.3861 16.64 13.8027 16.27C12.8861 15.69 12.3652 15.33 11.4798 14.77C10.4486 14.12 11.1152 13.76 11.709 13.18C11.8652 13.03 14.5319 10.7 14.584 10.49C14.5912 10.4582 14.5903 10.4252 14.5812 10.3938C14.5721 10.3624 14.5552 10.3337 14.5319 10.31C14.4694 10.26 14.3861 10.28 14.3132 10.29C14.2194 10.31 12.7611 11.24 9.91732 13.08C9.50065 13.35 9.12565 13.49 8.79232 13.48C8.41732 13.47 7.70898 13.28 7.17773 13.11C6.52148 12.91 6.01107 12.8 6.05273 12.45C6.07357 12.27 6.33398 12.09 6.82357 11.9C9.86524 10.63 11.8861 9.79 12.8965 9.39C15.7923 8.23 16.3861 8.03 16.7819 8.03C16.8652 8.03 17.0632 8.05 17.1882 8.15C17.2923 8.23 17.3236 8.34 17.334 8.42C17.3236 8.48 17.3444 8.66 17.334 8.8Z" fill="black"/>
</svg>
